<?xml version="1.0" standalone="no"?>
<!DOCTYPE svg PUBLIC "-//W3C//DTD SVG 1.1//EN" "http://www.w3.org/Graphics/SVG/1.1/DTD/svg11.dtd" >
<svg xmlns="http://www.w3.org/2000/svg">
<metadata>Generated by IcoMoon</metadata>
<defs>
<font id="icomoon" horiz-adv-x="512">
<font-face units-per-em="512" ascent="480" descent="-32" />
<missing-glyph horiz-adv-x="512" />
<glyph unicode="&#x20;" d="" horiz-adv-x="256" />
<glyph unicode="&#xe600;" d="M224 192l192 192 64-64-256-256-160 160 64 64z" />
<glyph unicode="&#xe601;" d="M352 448h-192.016v-224h-128l224-224 223.984 224h-127.968z" />
<glyph unicode="&#xe602;" d="M256 447.984v-127.984h224v-192h-224v-128l-224 224z" />
<glyph unicode="&#xe603;" d="M256 447.984v-127.984h-224v-192h224v-128l224 224z" />
<glyph unicode="&#xe604;" d="M32 224h127.984v-224h192v224h128l-224 224z" />
<glyph unicode="&#xe605;" d="M32.032 320l223.984-224 224.016 224z" />
<glyph unicode="&#xe606;" d="M352 447.984l-224-223.984 224-224z" />
<glyph unicode="&#xe607;" d="M160 447.984l224-223.984-224-224z" />
<glyph unicode="&#xe608;" d="M480 128l-223.984 224-224-224z" />
<glyph unicode="&#xe609;" d="M352 112l64 64 32-32-96-96-64 64 32 32zM224 112c0 79.568 64.432 144 144 144v0c79.536 0 143.968-64.432 144-144v0c-0.032-79.536-64.464-143.968-144-144v0c-79.568 0.032-144 64.464-144 144v0zM257.84 112c0.144-60.784 49.344-109.984 110.16-110.128v0c60.784 0.144 109.984 49.344 110.128 110.128v0c-0.144 60.816-49.344 110.016-110.128 110.144v0c-60.816-0.128-110.016-49.328-110.16-110.144v0z" />
<glyph unicode="&#xe60a;" d="M368 80l32-32 32 32-32 32 32 32-32 32-32-32-32 32-32-32 32-32-32-32 32-32zM224 112c0 79.568 64.432 144 144 144v0c79.536 0 143.968-64.432 144-144v0c-0.032-79.536-64.464-143.968-144-144v0c-79.568 0.032-144 64.464-144 144v0zM257.856 112c0.128-60.784 49.328-109.984 110.144-110.128v0c60.784 0.144 109.984 49.344 110.128 110.128v0c-0.144 60.816-49.344 110.016-110.128 110.16v0c-60.816-0.144-110.016-49.344-110.144-110.16v0z" />
<glyph unicode="&#xe60b;" d="M368 64l64 64h-128zM224 112c0 79.568 64.432 144 144 144v0c79.536 0 143.968-64.432 144-144v0c-0.032-79.536-64.464-143.968-144-144v0c-79.568 0.032-144 64.464-144 144v0zM257.84 112c0.144-60.784 49.344-109.984 110.16-110.128v0c60.784 0.144 109.984 49.344 110.128 110.128v0c-0.144 60.816-49.344 110.016-110.128 110.144v0c-60.816-0.128-110.016-49.328-110.16-110.144v0z" />
<glyph unicode="&#xe60c;" d="M448.006 144.009l-79.999-79.999-48.004 48.004 79.999 79.999zM304 96l48-48h-48zM368-32c-79.568 0.032-144 64.464-144 144 0 79.568 64.432 144 144 144 79.536 0 143.968-64.432 144-144-0.032-79.536-64.464-143.968-144-144zM368 222.16c-60.816-0.144-110.016-49.344-110.144-110.16 0.128-60.784 49.328-109.984 110.144-110.128 60.784 0.144 109.984 49.344 110.128 110.128-0.144 60.816-49.344 110.016-110.128 110.16z" />
<glyph unicode="&#xe60d;" d="M0 480v-448h511.984l0.016 448h-512zM352 448v-32h-192v32h192zM128 448v-32h-32v32h32zM32 448h32v-32h-32v32zM479.984 64h-447.984v320h447.984v-320zM480 416h-64v32h64v-32zM64 320h160v-160h-160zM448 320v-32h-160v32zM448 256v-32h-160v32zM384 192v-32h-96v32z" />
<glyph unicode="&#xe60e;" d="M192 416v-64h-192v-320h38.608l64.032 64h217.36v64h89.328l64-64h38.672v320h-320zM288 128h-198.672l-57.328-57.328v249.328h256v-192zM480 134.64l-57.376 57.36h-102.64v160h-95.984v32h256v-249.36z" />
<glyph unicode="&#xe60f;" d="M352 112l64 64 32-32-96-96-64 64 32 32zM416 352h-288v-32h288v32zM416 288h-288v-32h288v32zM480 202.4v245.6h-448v-448h38.624l96.032 96h58.288c7.968-71.968 68.944-127.968 143.056-128 79.52 0.032 143.968 64.48 144 144-0.016 34.272-12.032 65.68-32 90.4zM224.944 128h-71.6l-89.344-89.328v377.328h384v-184.288c-22.896 15.328-50.384 24.288-80 24.288-34.288 0-65.696-12.016-90.432-32h-149.568v-32h120.272c-12.528-18.704-20.736-40.496-23.328-64zM368 1.888c-60.816 0.128-110.016 49.328-110.16 110.112 0.144 60.816 49.344 110.016 110.16 110.16 60.784-0.144 109.984-49.344 110.112-110.16-0.128-60.784-49.328-109.984-110.112-110.112z" />
<glyph unicode="&#xe610;" d="M128 480v-512h256v512h-256zM208 0h-32v32.016h32v-32.016zM208 64h-32v32h32v-32zM208 128h-32v32h32v-32zM272 0h-32v32h32v-32zM272 64h-32v32h32v-32zM272 128h-32v32h32v-32zM336 0h-32v32h32v-32zM336 64h-32v32h32v-32zM336 128h-32v32h32v-32zM336 192h-160v224h160v-224z" />
<glyph unicode="&#xe611;" d="M409.6 256h-307.2c-14.131 0-25.6-11.469-25.6-25.6s11.469-25.6 25.6-25.6h307.2c14.157 0 25.6 11.469 25.6 25.6s-11.443 25.6-25.6 25.6zM102.4 307.2h307.2c14.157 0 25.6 11.469 25.6 25.6s-11.443 25.6-25.6 25.6h-307.2c-14.131 0-25.6-11.469-25.6-25.6s11.469-25.6 25.6-25.6zM409.6 153.6h-307.2c-14.131 0-25.6-11.443-25.6-25.6s11.469-25.6 25.6-25.6h307.2c14.157 0 25.6 11.443 25.6 25.6s-11.443 25.6-25.6 25.6z" />
<glyph unicode="&#xe612;" d="M491.52 376.499c-17.357-7.706-35.968-12.877-55.526-15.232 19.968 11.955 35.303 30.899 42.496 53.453-18.663-11.059-39.347-19.123-61.337-23.45-17.639 18.791-42.752 30.515-70.553 30.515-53.376 0-96.64-43.264-96.64-96.614 0-7.577 0.845-14.951 2.509-22.016-80.307 4.019-151.526 42.496-199.168 100.966-8.346-14.259-13.133-30.873-13.133-48.589 0-33.536 17.075-63.104 43.008-80.435-15.847 0.512-30.745 4.839-43.776 12.083 0-0.41 0-0.793 0-1.203 0-46.822 33.331-85.863 77.517-94.771-8.090-2.202-16.64-3.379-25.472-3.379-6.221 0-12.263 0.589-18.176 1.715 12.288-38.4 48-66.329 90.265-67.098-33.075-25.933-74.727-41.37-120.013-41.37-7.808 0-15.488 0.461-23.040 1.357 42.752-27.418 93.542-43.418 148.147-43.418 177.741 0 274.944 147.251 274.944 274.969 0 4.173-0.077 8.346-0.281 12.493 18.893 13.619 35.251 30.643 48.231 50.022z" />
<glyph unicode="&#xe613;" d="M421.12 450.56h-330.24c-30.259 0-55.040-24.781-55.040-55.040v-330.24c0-30.285 24.781-55.014 55.015-55.014h167.015v157.875h-52.736v68.762h52.736v34.458c0 53.12 39.219 94.72 89.293 94.72h48.589v-77.671h-43.495c-11.366 0-14.695-6.528-14.695-15.539v-35.942h58.189v-68.787h-58.189v-157.901h83.533c30.285 0 55.014 24.755 55.014 55.014v330.266c0.051 30.259-24.704 55.040-54.989 55.040z" />
<glyph unicode="&#xe614;" d="M220.57 147.763c-13.44-70.477-29.85-138.061-78.49-173.363-15.001 106.547 22.041 186.547 39.245 271.488-29.338 49.408 3.533 148.787 65.433 124.288 76.16-30.131-65.945-183.629 29.44-202.803 99.61-20.019 140.262 172.8 78.515 235.495-89.241 90.573-259.789 2.099-238.797-127.513 5.094-31.693 37.837-41.319 13.082-85.043-57.114 12.647-74.163 57.703-71.962 117.76 3.533 98.278 88.32 167.091 173.363 176.614 107.571 12.058 208.512-39.475 222.413-140.647 15.693-114.176-48.512-237.85-163.558-228.941-31.155 2.381-44.237 17.817-68.685 32.666z" />
<glyph unicode="&#xe615;" d="M389.12 230.4c0-73.523-59.623-133.12-133.12-133.12-73.523 0-133.12 59.597-133.12 133.12 0 8.755 0.871 17.305 2.509 25.6h-89.549v-176.947c0-37.99 30.771-68.813 68.813-68.813h302.694c37.99 0 68.813 30.797 68.813 68.813v176.947h-89.523c1.613-8.294 2.483-16.845 2.483-25.6zM407.347 450.56h-302.695c-38.016 0-68.813-30.822-68.813-68.813v-74.547h111.462c24.089 34.048 63.795 56.32 108.697 56.32s84.608-22.272 108.697-56.32h111.463v74.547c0 37.99-30.822 68.813-68.813 68.813zM441.011 365.568c0-6.784-5.529-12.288-12.288-12.288h-36.839c-6.759 0-12.288 5.529-12.288 12.288v36.864c0 6.784 5.555 12.288 12.288 12.288h36.839c6.784 0 12.288-5.529 12.288-12.288v-36.864zM337.92 230.4c0 45.261-36.685 81.92-81.92 81.92s-81.92-36.659-81.92-81.92 36.685-81.92 81.92-81.92 81.92 36.659 81.92 81.92z" />
<glyph unicode="&#xe616;" d="M272.017 192c35.344 0 64 28.656 64 64s-28.656 64-64 64c-35.344 0-64-28.656-64-64s28.656-64 64-64zM368.017 160h-192c0 0-32 0-32-32v-96h256v96c0 0 0 32-32 32zM464.017 480v-31.984h-32v-32.016h32v-448h-384c0 0-32 0-32 32v431.712c0 0.096-0.016 0.192-0.016 0.288-0.56 21.68 12.912 37.024 24.88 42.336 11.824 5.792 21.792 5.6 23.136 5.664h368zM95.953 416c0.032 0 0.048 0 0.064 0h304v32.016h-304c-0.032-0.096-0.512 0.032-2.384-0.304-1.84-0.304-4.384-0.96-6.448-2-4.080-2.736-6.64-3.36-7.168-13.712 0.24-8 2.144-9.744 4.336-11.888 2.32-2.016 6.432-3.392 9.264-3.824 1.536-0.272 2.128-0.288 2.336-0.288zM112.016 0h320v384h-320v-384z" />
<glyph unicode="&#xe617;" d="M320 224c0-35.346-28.654-64-64-64s-64 28.654-64 64c0 35.346 28.654 64 64 64s64-28.654 64-64zM448 352c35.328 0 64 28.656 64 64s-28.672 64-64 64c-35.328 0-64-28.656-64-64 0-11.84 3.44-22.784 9.040-32.304l-51.536-51.52c-25.296 11.568-53.984 19.504-85.504 19.84-123.104-1.248-203.68-117.28-205.008-118.064l-6.656-9.296 6.624-9.328c0.832-0.512 34.16-48.544 90.208-83.504l-44.864-44.88c-9.52 5.616-20.464 9.056-32.304 9.056-35.328 0-64-28.656-64-64s28.672-64 64-64c35.328 0 64 28.656 64 64 0 11.84-3.44 22.816-9.056 32.336l51.568 51.6c25.328-11.616 53.984-19.584 85.488-19.904 123.136 1.28 203.68 117.904 204.992 118.688l6.672 9.28-6.656 9.328c-0.848 0.512-34.128 48.208-90.096 82.992l44.768 44.752c9.504-5.632 20.48-9.072 32.32-9.072zM421.728 230.96c2.272-2.576 4.24-4.912 5.92-6.944-1.68-2.032-3.664-4.352-5.92-6.928-26.416-30.384-90.144-89.6-165.728-89.088-50.432-0.096-95.36 25.728-127.792 52.64-16.176 13.376-29.12 26.864-37.952 36.928-2.272 2.608-4.256 4.944-5.936 6.992 1.68 2 3.648 4.304 5.904 6.848 26.432 30.208 90.128 89.12 165.776 88.592 50.432 0.128 95.408-25.568 127.808-52.352 16.16-13.312 29.104-26.72 37.92-36.688zM384 32c0 35.36 28.64 64 64 64v0c35.36 0 64-28.64 64-64v0c0-35.36-28.64-64-64-64v0c-35.36 0-64 28.64-64 64v0zM416 32c0.032-17.648 14.336-31.968 32-32v0c17.648 0.032 31.968 14.352 32 32v0c-0.032 17.664-14.352 31.968-32 32v0c-17.664-0.032-31.968-14.336-32-32v0zM0 416c0 35.344 28.656 64 64 64v0c35.312 0 63.968-28.656 64-64v0c-0.032-35.344-28.688-63.968-64-64v0c-35.344 0.032-64 28.656-64 64v0zM32 416c0.032-17.68 14.32-31.968 32-31.968v0c17.648 0 31.968 14.288 31.968 31.968v0c0 17.68-14.32 31.968-31.968 32v0c-17.68-0.032-31.968-14.32-32-32v0z" />
<glyph unicode="&#xe618;" d="M256 256h64v64h192v-192h-192v64h-64zM224 256h-64v-64h64v-128h-224v320h224z" />
<glyph unicode="&#xe619;" d="M352 352c-37.136 0-63.44-16.144-79.008-29.712 6.528 66.544 47.008 93.712 47.008 93.712l-32 16c0 0-41.28-41.392-47.232-111.28-15.328 13.856-42.192 31.28-80.768 31.28-64 0-112-48-96-144 21.040-126.272 80-176 128-176 32 0 64 32 64 32s32-32 64-32c48 0 106.96 49.728 128 176 16 96-32 144-96 144z" />
<glyph unicode="&#xe61a;" d="M512 256v32h-161.696c20.752 20.32 33.68 48.64 33.696 80-0.032 61.856-50.144 112-112 112s-112-50.144-112-112c0-59.712 46.768-108.352 105.664-111.68l-64.304-64.32h-201.36v-32h161.744c-20.784-20.32-33.744-48.64-33.744-80 0.032-61.84 50.16-111.968 112-112 61.84 0.032 111.968 50.16 112 112-0.032 59.696-46.816 108.336-105.696 111.664l64.32 64.336h201.376zM192 368c0.064 44.176 35.824 79.936 80 80 44.192-0.064 79.904-35.824 79.968-80h0.032c-0.064-44.176-35.808-79.904-80-80-44.176 0.080-79.936 35.808-80 80zM320 80c-0.064-44.192-35.824-79.936-79.984-80-44.176 0.064-79.92 35.808-80.016 80 0.096 44.176 35.84 79.92 80.016 80 44.16-0.080 79.92-35.84 79.984-80z" />
<glyph unicode="&#xe61b;" d="M64 352l96-96 160 160 128-128-160-160 96-96h-320z" />
<glyph unicode="&#xe61c;" d="M448 352l-96-96-160 160-128-128 160-160-96-96h320z" />
<glyph unicode="&#xe61d;" d="M64 96l96 96 160-160 128 128-160 160 96 96h-320z" />
<glyph unicode="&#xe61e;" d="M448 96l-96 96-160-160-128 128 160 160-96 96h320z" />
<glyph unicode="&#xe61f;" d="M64 352v-320h320z" />
<glyph unicode="&#xe620;" d="M448 352v-320h-320z" />
<glyph unicode="&#xe621;" d="M64 96v320h320z" />
<glyph unicode="&#xe622;" d="M448 96v320h-320z" />
<glyph unicode="&#xe623;" d="M352 128h-64v-32h64v-64h32v64h64v32h-64v64h-32zM458.416 224h5.568c21.68-0.56 37.024 12.912 42.32 24.848 5.792 11.84 5.6 21.792 5.664 23.136l0.032 64c-0.112 1.344 0.096 11.312-5.696 23.168-5.28 11.936-20.624 25.376-42.32 24.816-32 0.032-351.984 0.032-351.984 0.016-1.328-0.064-27.296 0.128-55.168-13.68-27.952-13.296-57.376-44.656-56.832-98.304-0.56-53.648 28.864-85.056 56.816-98.304 27.888-13.824 53.856-13.632 55.184-13.696h120.368c-5.328-15.024-8.368-31.136-8.368-48 0-79.536 64.432-143.968 144-144 79.536 0.032 143.968 64.464 144 144-0.016 45.28-20.944 85.616-53.584 112zM112 191.968c0 0-4.512-0.032-12.352 1.312-11.872 1.904-29.456 7.024-43.008 18.432-13.488 11.536-24.4 28.288-24.656 60.288 0.56 42.336 19.12 58.96 39.184 69.696 10.080 5.040 20.608 7.712 28.48 8.992 7.824 1.312 12.352 1.184 12.352 1.312 0 0 320 0 352 0 10.336-0.56 10.976-3.12 13.696-7.184 1.008-2.080 1.712-4.576 2.016-6.464 0.32-1.872 0.176-2.368 0.288-2.368l-0.032-64c0.032 0 0.064-0.496-0.272-2.368-0.432-2.864-1.808-6.96-3.824-9.248-2.144-2.224-3.888-4.128-11.888-4.384-11.248 0-50.208 0.016-95.952 0.016-0.016 0-0.016 0-0.032 0s-0.016 0-0.032 0c-84.32 0-191.776 0-191.968-0.016-10.352 0.56-10.976 3.12-13.68 7.152-1.056 2.112-1.744 4.608-2.032 6.48-0.352 1.872-0.176 2.384-0.304 2.384 0.56 10.336 3.12 10.96 7.184 13.664 2.080 1.056 4.592 1.744 6.464 2.048s2.368 0.16 2.368 0.256h256v32h-256c-1.328-0.064-11.312 0.128-23.136-5.664-11.968-5.28-25.424-20.672-24.864-42.304 0.064-1.344-0.128-11.296 5.664-23.136 5.28-11.952 20.672-25.424 42.336-24.864 0 0 46.080 0 101.568 0-11.312-9.136-21.216-19.92-29.328-32.032h-136.24zM368 1.872c-60.816 0.144-110.016 49.344-110.16 110.128 0.144 60.816 49.344 110.016 110.16 110.144 60.784-0.128 109.984-49.328 110.128-110.144-0.144-60.784-49.344-109.984-110.128-110.128z" />
<glyph unicode="&#xe624;" d="M368 64l64 64h-128zM458.416 224h5.568c21.68-0.56 37.024 12.912 42.32 24.848 5.792 11.84 5.6 21.792 5.664 23.136l0.032 64c-0.112 1.344 0.096 11.312-5.696 23.168-5.28 11.936-20.624 25.376-42.32 24.816-32 0.032-351.984 0.032-351.984 0.016-1.328-0.064-27.296 0.128-55.168-13.68-27.952-13.296-57.376-44.656-56.832-98.304-0.56-53.648 28.864-85.056 56.816-98.304 27.888-13.824 53.856-13.632 55.184-13.696h120.368c-5.328-15.024-8.368-31.136-8.368-48 0-79.536 64.432-143.968 144-144 79.536 0.032 143.968 64.464 144 144-0.016 45.28-20.944 85.616-53.584 112zM112 191.968c0 0-4.512-0.032-12.352 1.312-11.872 1.904-29.456 7.024-43.008 18.432-13.488 11.536-24.4 28.288-24.656 60.288 0.56 42.336 19.12 58.96 39.184 69.696 10.080 5.040 20.608 7.712 28.48 8.992 7.824 1.312 12.352 1.184 12.352 1.312 0 0 320 0 352 0 10.336-0.56 10.976-3.12 13.696-7.184 1.008-2.080 1.712-4.576 2.016-6.464 0.32-1.872 0.176-2.368 0.288-2.368l-0.032-64c0.032 0 0.064-0.496-0.272-2.368-0.432-2.864-1.808-6.96-3.824-9.248-2.144-2.224-3.888-4.128-11.888-4.384-11.248 0-50.208 0.016-95.952 0.016-0.016 0-0.016 0-0.032 0s-0.016 0-0.032 0c-84.32 0-191.776 0-191.968-0.016-10.352 0.56-10.976 3.12-13.68 7.152-1.056 2.112-1.744 4.608-2.032 6.48-0.352 1.872-0.176 2.384-0.304 2.384 0.56 10.336 3.12 10.96 7.184 13.664 2.080 1.056 4.592 1.744 6.464 2.048s2.368 0.16 2.368 0.256h256v32h-256c-1.328-0.064-11.312 0.128-23.136-5.664-11.968-5.28-25.424-20.672-24.864-42.304 0.064-1.344-0.128-11.296 5.664-23.136 5.28-11.952 20.672-25.424 42.336-24.864 0 0 46.080 0 101.568 0-11.312-9.136-21.216-19.92-29.328-32.032h-136.24zM368 1.872c-60.816 0.144-110.016 49.344-110.16 110.128 0.144 60.816 49.344 110.016 110.16 110.144 60.784-0.128 109.984-49.328 110.128-110.144-0.144-60.784-49.344-109.984-110.128-110.128z" />
<glyph unicode="&#xe625;" d="M112 160c-1.328 0.064-27.296-0.128-55.168 13.68v0c-27.952 13.264-57.376 44.656-56.832 98.32v0c-0.56 53.648 28.864 85.024 56.816 98.304v0c27.888 13.808 53.856 13.616 55.184 13.68v0c0 0.032 320 0.032 352 0v0c21.68 0.56 37.024-12.896 42.32-24.816v0c5.792-11.872 5.6-21.824 5.696-23.168v0l-0.032-64c-0.080-1.344 0.128-11.296-5.664-23.136v0c-5.28-11.952-20.624-25.408-42.32-24.848v0c-32 0-288 0-288 0v0c-21.664-0.56-37.040 12.912-42.32 24.848v0c-5.808 11.824-5.616 21.792-5.68 23.136v0c-0.56 21.648 12.88 37.024 24.848 42.32v0c11.824 5.792 21.808 5.6 23.136 5.664v0h256v-32h-255.984c0-0.096-0.496 0.032-2.368-0.256v0c-1.872-0.304-4.384-0.992-6.464-2.048v0c-4.048-2.704-6.624-3.328-7.184-13.664v0c0.128 0-0.032-0.496 0.304-2.368v0c0.304-1.872 0.992-4.368 2.032-6.48v0c2.704-4.032 3.328-6.592 13.68-7.152v0c0.304 0.032 256 0.032 288 0v0c8 0.272 9.744 2.176 11.888 4.384v0c2.016 2.304 3.392 6.384 3.824 9.248v0c0.32 1.84 0.288 2.352 0.256 2.352v0l0.032 64c-0.112 0 0.032 0.496-0.304 2.368v0c-0.304 1.888-0.992 4.384-2.016 6.464v0c-2.72 4.048-3.344 6.608-13.696 7.168v0c-32 0-352 0-352 0v0c0-0.128-4.512 0-12.352-1.312v0c-7.872-1.296-18.384-3.952-28.48-8.992v0c-20.064-10.752-38.608-27.36-39.168-69.696v0c0.272-32 11.168-48.736 24.656-60.272v0c13.552-11.408 31.136-16.528 43.008-18.432v0c7.824-1.36 12.352-1.328 12.352-1.328v0h352v-31.968h-352z" />
<glyph unicode="&#xe626;" d="M368 320c0 0-16 32-48 32s-48-32-48-32c0 0 32 0 48 0s48 0 48 0zM192 352c-32 0-48-32-48-32s32 0 48 0c16 0 48 0 48 0s-16 32-48 32zM503.024 161.6c-16.272 44.304-53.584 78.272-99.888 89.904 8.096 35.088 12.832 72.368 12.864 110.048 0 28.624-7.872 55.536-21.584 78.624l-7.584 12.752-13.264-6.56c-0.016-0.016-8.528-4.208-21.744-9.632-23.456 26.512-57.648 43.264-95.824 43.264-38.192 0-72.432-16.768-95.888-43.312-13.232 5.424-21.76 9.632-21.792 9.6l-13.312 6.56-7.536-12.736c-13.664-23.104-21.472-50-21.472-78.56 0.032-59.952 11.312-119.392 30.496-169.552-55.216 0-62.496 0-62.496 0s-64-2.672-64-64c0-32 0-160 0-160h512v160c0 0-0.096 17.088-8.976 33.6zM233.568 163.28c-6.096-15.952-9.568-33.184-9.568-51.28 0-1.936 0.224-3.84 0.288-5.76-19.888 12.336-39.616 35.808-55.792 68.848-24.768 50.112-40.544 118.544-40.512 186.464 0 17.664 3.744 34.368 10.48 49.568 23.968-10.496 73.84-30.016 117.52-30.352 43.648 0.368 93.536 19.936 117.488 30.432 6.768-15.2 10.512-31.936 10.512-49.632 0.032-36.112-4.656-72.16-12.56-105.712-1.136 0-2.272 0.144-3.424 0.144-42.448 0-80.48-18.464-106.832-47.664-1.696-0.080-3.536-0.336-5.168-0.336-32 0-80 16-80 16s12.32-48.112 57.568-60.72zM368 1.872c-60.816 0.144-110.016 49.344-110.16 110.128 0.144 60.816 49.344 110.016 110.16 110.16 60.784-0.144 109.984-49.344 110.128-110.16-0.144-60.784-49.344-109.984-110.128-110.128zM448.006 144.009l-79.999-79.999-48.004 48.004 79.999 79.999zM304 48v48l48-48z" />
<glyph unicode="&#xe627;" d="M352 32h32v96h-32v-96zM352 192v-32h32v32h-32zM368 320c0 0-16 32-48 32s-48-32-48-32c0 0 32 0 48 0s48 0 48 0zM192 352c-32 0-48-32-48-32s32 0 48 0c16 0 48 0 48 0s-16 32-48 32zM503.024 161.6c-16.272 44.304-53.584 78.272-99.888 89.904 8.096 35.088 12.832 72.368 12.864 110.048 0 28.624-7.872 55.536-21.584 78.624l-7.584 12.752-13.264-6.56c-0.016-0.016-8.528-4.208-21.744-9.632-23.456 26.512-57.648 43.264-95.824 43.264-38.192 0-72.432-16.768-95.888-43.312-13.232 5.424-21.76 9.632-21.792 9.6l-13.312 6.56-7.536-12.736c-13.664-23.104-21.472-50-21.472-78.56 0.032-59.952 11.312-119.392 30.496-169.552-55.216 0-62.496 0-62.496 0s-64-2.672-64-64c0-32 0-160 0-160h512v160c0 0-0.096 17.088-8.976 33.6zM233.568 163.28c-6.096-15.952-9.568-33.184-9.568-51.28 0-1.936 0.224-3.84 0.288-5.76-19.888 12.336-39.616 35.808-55.792 68.848-24.768 50.112-40.544 118.544-40.512 186.464 0 17.664 3.744 34.368 10.48 49.568 23.968-10.496 73.84-30.016 117.52-30.352 43.648 0.368 93.536 19.936 117.488 30.432 6.768-15.2 10.512-31.936 10.512-49.632 0.032-36.112-4.656-72.16-12.56-105.712-1.136 0-2.272 0.144-3.424 0.144-42.448 0-80.48-18.464-106.832-47.664-1.696-0.080-3.536-0.336-5.168-0.336-32 0-80 16-80 16s12.32-48.112 57.568-60.72zM368 1.872c-60.816 0.144-110.016 49.344-110.16 110.128 0.144 60.816 49.344 110.016 110.16 110.16 60.784-0.144 109.984-49.344 110.128-110.16-0.144-60.784-49.344-109.984-110.128-110.128z" />
<glyph unicode="&#xe628;" d="M448 192h-62.528c19.2 50.16 30.48 109.6 30.528 169.552 0 28.624-7.872 55.536-21.584 78.624l-7.584 12.752-13.264-6.56c-0.016-0.016-8.528-4.208-21.744-9.632-23.456 26.512-57.648 43.264-95.824 43.264-38.192 0-72.432-16.768-95.888-43.312-13.232 5.424-21.76 9.632-21.792 9.6l-13.312 6.56-7.536-12.736c-13.664-23.104-21.472-50-21.472-78.56 0.032-59.952 11.312-119.392 30.496-169.552-55.216 0-62.496 0-62.496 0s-64-2.672-64-64c0-32 0-160 0-160h512v160c0 0 0 64-64 64zM343.472 175.072c-24.88-50.752-58.112-79.792-87.488-79.072-29.376-0.72-62.624 28.336-87.488 79.072-24.768 50.112-40.544 118.544-40.512 186.464 0 17.664 3.744 34.368 10.48 49.568 23.968-10.496 73.84-30.016 117.52-30.352 43.648 0.368 93.536 19.936 117.488 30.432 6.768-15.2 10.512-31.936 10.512-49.632 0.064-67.92-15.744-136.368-40.512-186.48zM176 224c0 0 16-64 80-64 62.672 0 80 64 80 64s-48-16-80-16-80 16-80 16zM240 320c0 0-16 32-48 32s-48-32-48-32 32 0 48 0 48 0 48 0zM320 352c-32 0-48-32-48-32s32 0 48 0 48 0 48 0-16 32-48 32z" />
<glyph unicode="&#xe629;" d="M320 160h32v-96h-32zM384 160h32v-96h-32zM480 480h-448v-224h448v224zM448 288h-384v160h384v-160zM416 416h-320v-96h320v96zM192 352h-64v32h64v-32zM128 224l-96-96h192l-96 96zM368 256c-79.568 0-144-64.432-144-144 0-5.408 0.352-10.736 0.944-16-64.144 0-192.944 0-192.944 0v-128h448v53.616c19.968 24.72 31.984 56.128 32 90.384-0.032 79.568-64.464 144-144 144zM128 0h-64v32h64v-32zM368 1.872c-60.816 0.144-110.016 49.344-110.16 110.128 0.144 60.816 49.344 110.016 110.16 110.144 60.784-0.128 109.984-49.328 110.128-110.144-0.144-60.784-49.344-109.984-110.128-110.128z" />
<glyph unicode="&#xe62a;" d="M416 112l-64 64v-128zM480 480h-448v-224h448v224zM448 288h-384v160h384v-160zM416 416h-320v-96h320v96zM192 352h-64v32h64v-32zM128 224l-96-96h192l-96 96zM368 256c-79.568 0-144-64.432-144-144 0-5.408 0.352-10.736 0.944-16-64.144 0-192.944 0-192.944 0v-128h448v53.616c19.968 24.72 31.984 56.128 32 90.384-0.032 79.568-64.464 144-144 144zM128 0h-64v32h64v-32zM368 1.872c-60.816 0.144-110.016 49.344-110.16 110.128 0.144 60.816 49.344 110.016 110.16 110.16 60.784-0.144 109.984-49.344 110.128-110.16-0.144-60.784-49.344-109.984-110.128-110.128z" />
<glyph unicode="&#xe62b;" d="M448 96v32.016h-26.608c-1.008 3.392-2.32 6.608-3.92 9.696l18.992 18.992-22.656 22.64-18.64-18.656c-3.52 1.968-7.232 3.536-11.152 4.704v26.608h-32v-26.592c-3.664-1.088-7.136-2.528-10.432-4.32l-18.256 18.24-22.64-22.64 18.24-18.24c-1.792-3.312-3.232-6.784-4.336-10.448h-26.592v-32h26.592c1.168-3.936 2.752-7.664 4.72-11.168l-18.64-18.608 22.608-22.656 19.008 18.992c3.072-1.616 6.304-2.912 9.68-3.92v-26.64h32.032v26.64c3.664 1.088 7.12 2.528 10.416 4.32l19.392-19.392 22.624 22.656-19.392 19.36c1.776 3.296 3.216 6.768 4.32 10.416h26.64zM367.984 88.016c-13.264 0.032-23.968 10.736-24.016 24 0.048 13.264 10.752 23.968 24.016 24.016 13.264-0.048 23.968-10.752 24-24.016-0.032-13.264-10.736-23.968-24-24zM480 480h-448v-224h448v224zM448 288h-384v160h384v-160zM416 416h-320v-96h320v96zM192 352h-64v32h64v-32zM128 224l-96-96h192l-96 96zM368 256c-79.568 0-144-64.432-144-144 0-5.408 0.352-10.736 0.944-16-64.144 0-192.944 0-192.944 0v-128h448v53.616c19.968 24.72 31.984 56.128 32 90.384-0.032 79.568-64.464 144-144 144zM128 0h-64v32h64v-32zM368 1.872c-60.816 0.144-110.016 49.344-110.16 110.128 0.144 60.816 49.344 110.016 110.16 110.144 60.784-0.128 109.984-49.328 110.128-110.144-0.144-60.784-49.344-109.984-110.128-110.128z" />
<glyph unicode="&#xe62c;" d="M320 160h96v-96h-96zM480 480h-448v-224h448v224zM448 288h-384v160h384v-160zM416 416h-320v-96h320v96zM192 352h-64v32h64v-32zM128 224l-96-96h192l-96 96zM368 256c-79.568 0-144-64.432-144-144 0-5.408 0.352-10.736 0.944-16-64.144 0-192.944 0-192.944 0v-128h448v53.616c19.968 24.72 31.984 56.128 32 90.384-0.032 79.568-64.464 144-144 144zM128 0h-64v32h64v-32zM368 1.872c-60.816 0.144-110.016 49.344-110.16 110.128 0.144 60.816 49.344 110.016 110.16 110.144 60.784-0.128 109.984-49.328 110.128-110.144-0.144-60.784-49.344-109.984-110.128-110.128z" />
<glyph unicode="&#xe62d;" d="M384 224l-96-96h192zM128 224l-96-96h192zM96 416v-96h320v96h-320zM192 352h-64v32h64v-32zM32 96v-128h448v128h-448zM128 0h-64v32h64v-32zM32 256v224h448v-224h-448zM448 288v160h-384v-160h384z" />
<glyph unicode="&#xe62e;" d="M304 96h128v-32h-128zM368 192l-64-64h128zM224 112c0 79.568 64.432 144 144 144v0c79.536 0 143.968-64.432 144-144v0c-0.032-79.536-64.464-143.968-144-144v0c-79.568 0.032-144 64.464-144 144v0zM257.856 112c0.128-60.784 49.328-109.984 110.144-110.128v0c60.784 0.144 109.984 49.344 110.128 110.128v0c-0.144 60.816-49.344 110.016-110.128 110.144v0c-60.816-0.128-110.016-49.328-110.144-110.144v0z" />
<glyph unicode="&#xe62f;" d="M224 112c0 79.568 64.432 144 144 144v0c79.536 0 143.968-64.432 144-144v0c-0.032-79.536-64.464-143.968-144-144v0c-79.568 0.032-144 64.464-144 144v0zM257.84 112c0.144-60.784 49.344-109.984 110.16-110.128v0c60.784 0.144 109.984 49.344 110.128 110.128v0c-0.144 60.816-49.344 110.016-110.128 110.144v0c-60.816-0.128-110.016-49.328-110.16-110.144v0zM352 32h32v96h-32v-96zM352 192v-32h32v32h-32z" />
<glyph unicode="&#xe630;" d="M288 128h160v-32h-160zM224 112c0 79.568 64.432 144 144 144v0c79.536 0 143.968-64.432 144-144v0c-0.032-79.536-64.464-143.968-144-144v0c-79.568 0.032-144 64.464-144 144v0zM257.856 112c0.128-60.784 49.328-109.984 110.144-110.128v0c60.784 0.144 109.984 49.344 110.128 110.128v0c-0.144 60.816-49.344 110.016-110.128 110.16v0c-60.816-0.144-110.016-49.344-110.144-110.16v0z" />
<glyph unicode="&#xe631;" d="M320 160h32v-96h-32zM384 160h32v-96h-32zM224 112c0 79.568 64.432 144 144 144v0c79.536 0 143.968-64.432 144-144v0c-0.032-79.536-64.464-143.968-144-144v0c-79.568 0.032-144 64.464-144 144v0zM257.856 112c0.128-60.784 49.328-109.984 110.144-110.128v0c60.784 0.144 109.984 49.344 110.128 110.128v0c-0.144 60.816-49.344 110.016-110.128 110.144v0c-60.816-0.128-110.016-49.328-110.144-110.144v0z" />
<glyph unicode="&#xe632;" d="M352 128h-64v-32h64v-64h32v64h64v32h-64v64h-32zM224 112c0 79.568 64.432 144 144 144v0c79.536 0 143.968-64.432 144-144v0c-0.032-79.536-64.464-143.968-144-144v0c-79.568 0.032-144 64.464-144 144v0zM257.84 112c0.144-60.784 49.344-109.984 110.16-110.128v0c60.784 0.144 109.984 49.344 110.128 110.128v0c-0.144 60.816-49.344 110.016-110.128 110.16v0c-60.816-0.144-110.016-49.344-110.16-110.16v0z" />
<glyph unicode="&#xe633;" d="M416 112l-64 64v-128zM224 112c0 79.568 64.432 144 144 144v0c79.536 0 143.968-64.432 144-144v0c-0.032-79.536-64.464-143.968-144-144v0c-79.568 0.032-144 64.464-144 144v0zM257.84 112c0.144-60.784 49.344-109.984 110.16-110.128v0c60.784 0.144 109.984 49.344 110.128 110.128v0c-0.144 60.816-49.344 110.016-110.128 110.144v0c-60.816-0.128-110.016-49.328-110.16-110.144v0z" />
<glyph unicode="&#xe634;" d="M418.304 128c0.128 2.096 0.224 4.272 0.224 6.544-0.096 10.848-1.408 23.872-8.896 36.144-7.312 12.464-23.008 21.76-41.632 21.328-18.64 0.432-34.368-8.864-41.68-21.328-7.52-12.272-8.832-25.296-8.896-36.144 0-2.288 0.096-4.448 0.224-6.544h-13.648v-80h128v80h-13.696zM349.392 134.544c-0.064 7.648 1.488 15.328 4.064 19.168 2.768 3.632 4.32 5.856 14.544 6.304 10.192-0.432 11.68-2.64 14.464-6.304 2.592-3.84 4.144-11.568 4.048-19.168 0-2.32-0.128-4.48-0.304-6.544h-36.512c-0.16 2.096-0.304 4.288-0.304 6.544zM224 112c0 79.568 64.432 144 144 144v0c79.536 0 143.968-64.432 144-144v0c-0.032-79.536-64.464-143.968-144-144v0c-79.568 0.032-144 64.464-144 144v0zM257.856 112c0.128-60.784 49.328-109.984 110.144-110.128v0c60.784 0.144 109.984 49.344 110.128 110.128v0c-0.144 60.816-49.344 110.016-110.128 110.144v0c-60.816-0.128-110.016-49.328-110.144-110.144v0z" />
<glyph unicode="&#xe635;" d="M448 96v32.016h-26.608c-1.008 3.392-2.32 6.608-3.92 9.696l18.992 18.992-22.656 22.64-18.64-18.656c-3.52 1.968-7.232 3.536-11.152 4.704v26.608h-32v-26.592c-3.664-1.088-7.136-2.528-10.432-4.32l-18.256 18.24-22.64-22.64 18.24-18.24c-1.792-3.312-3.232-6.784-4.336-10.448h-26.592v-32h26.592c1.168-3.936 2.752-7.664 4.72-11.168l-18.64-18.608 22.608-22.656 19.008 18.992c3.072-1.616 6.304-2.912 9.68-3.92v-26.64h32.032v26.64c3.664 1.088 7.12 2.528 10.416 4.32l19.392-19.392 22.624 22.656-19.392 19.36c1.776 3.296 3.216 6.768 4.32 10.416h26.64zM367.984 88.016c-13.264 0.032-23.968 10.736-24.016 24 0.048 13.264 10.752 23.968 24.016 24.016 13.264-0.048 23.968-10.752 24-24.016-0.032-13.264-10.736-23.968-24-24zM224 112c0 79.568 64.432 144 144 144v0c79.536 0 143.968-64.432 144-144v0c-0.032-79.536-64.464-143.968-144-144v0c-79.568 0.032-144 64.464-144 144v0zM257.84 112c0.144-60.784 49.344-109.984 110.16-110.128v0c60.784 0.144 109.984 49.344 110.128 110.128v0c-0.144 60.816-49.344 110.016-110.128 110.144v0c-60.816-0.128-110.016-49.328-110.16-110.144v0z" />
<glyph unicode="&#xe636;" d="M320 160h96v-96h-96zM224 112c0 79.568 64.432 144 144 144v0c79.536 0 143.968-64.432 144-144v0c-0.032-79.536-64.464-143.968-144-144v0c-79.568 0.032-144 64.464-144 144v0zM257.856 112c0.128-60.784 49.328-109.984 110.144-110.128v0c60.784 0.144 109.984 49.344 110.128 110.128v0c-0.144 60.816-49.344 110.016-110.128 110.144v0c-60.816-0.128-110.016-49.328-110.144-110.144v0z" />
<glyph unicode="&#xe637;" d="M368 160l-64-64h128zM224 112c0 79.568 64.432 144 144 144v0c79.536 0 143.968-64.432 144-144v0c-0.032-79.536-64.464-143.968-144-144v0c-79.568 0.032-144 64.464-144 144v0zM257.84 112c0.144-60.784 49.344-109.984 110.16-110.128v0c60.784 0.144 109.984 49.344 110.128 110.128v0c-0.144 60.816-49.344 110.016-110.128 110.144v0c-60.816-0.128-110.016-49.328-110.16-110.144v0z" />
<glyph unicode="&#xe638;" d="M256 480c-141.152 0-256-114.848-256-256s114.848-256 256-256 256 114.848 256 256-114.848 256-256 256zM32 224c0 59.264 23.296 113.072 61.008 153.184 2.704-4.32 5.856-9.856 9.152-16.816l-16.496-9.408 15.696-27.808 12.336 7.008c0.752-2.48 1.488-5.12 2.224-7.776l-14.704-4.032 8.304-30.832 13.2 3.6c0.4-2.4 0.832-4.688 1.2-7.184l-14.688-1.184 2.464-31.856 15.36 1.232c0.24-3.952 0.448-7.984 0.592-12.128h-15.648v-32h15.648c-0.144-4.144-0.336-8.16-0.592-12.112l-15.344 1.248-2.544-31.872 14.736-1.2c-0.352-2.496-0.8-4.8-1.2-7.2l-13.232 3.648-8.384-30.848 14.816-4.080c-0.736-2.688-1.472-5.344-2.256-7.856l-12.4 7.072-15.776-27.808 16.624-9.472c-3.28-6.912-6.4-12.384-9.088-16.704-37.712 40.112-61.008 93.92-61.008 153.184zM116.832 48.784c3.824 5.584 8.4 13.024 13.184 22.848l15.872-9.024 15.792 27.76-19.584 11.152c1.632 4.896 3.216 10.064 4.72 15.568l19.504-5.36 8.384 30.832-20.992 5.776c0.752 4.272 1.456 8.592 2.096 13.136l18.944-1.552 2.528 31.856-18.336 1.504c0.304 4.784 0.512 9.68 0.672 14.72h16.384v32h-16.368c-0.16 5.008-0.368 9.92-0.672 14.672l18.352 1.472-2.48 31.888-19.008-1.536c-0.624 4.528-1.328 8.848-2.080 13.088l21.088 5.76-8.336 30.88-19.664-5.376c-1.504 5.472-3.072 10.624-4.688 15.488l19.76 11.232-15.76 27.84-16.064-9.136c-4.8 9.856-9.408 17.36-13.248 22.944 38.272 30.448 86.576 48.784 139.168 48.784 52.576 0 100.896-18.336 139.152-48.784-3.84-5.584-8.432-13.088-13.248-22.96l-16.064 9.136-15.744-27.84 19.744-11.232c-1.632-4.864-3.184-10.016-4.688-15.488l-19.664 5.376-8.336-30.88 21.088-5.76c-0.752-4.256-1.456-8.56-2.080-13.088l-19.008 1.536-2.48-31.888 18.336-1.472c-0.304-4.768-0.496-9.664-0.672-14.672h-16.368v-32h16.368c0.176-5.024 0.368-9.936 0.672-14.72l-18.336-1.504 2.528-31.856 18.944 1.552c0.64-4.544 1.344-8.88 2.096-13.136l-20.992-5.776 8.368-30.832 19.52 5.36c1.52-5.504 3.072-10.672 4.72-15.568l-19.584-11.152 15.776-27.76 15.872 9.024c4.784-9.808 9.36-17.28 13.184-22.848-38.208-30.432-86.528-48.768-139.104-48.768-52.592 0-100.896 18.336-139.168 48.784zM418.992 70.816c-2.704 4.304-5.824 9.792-9.104 16.704l16.624 9.472-15.776 27.808-12.4-7.072c-0.768 2.512-1.52 5.168-2.256 7.856l14.832 4.080-8.384 30.848-13.232-3.648c-0.384 2.4-0.848 4.704-1.184 7.2l14.736 1.2-2.544 31.872-15.344-1.248c-0.272 3.952-0.48 7.968-0.624 12.112h15.648v32h-15.648c0.144 4.144 0.336 8.176 0.592 12.128l15.376-1.232 2.464 31.856-14.688 1.184c0.336 2.496 0.784 4.784 1.184 7.184l13.184-3.6 8.32 30.832-14.72 4.032c0.736 2.656 1.472 5.296 2.224 7.776l12.336-7.008 15.696 27.808-16.496 9.392c3.296 6.976 6.432 12.512 9.152 16.832 37.744-40.096 61.040-93.92 61.040-153.184s-23.296-113.072-61.008-153.184z" />
<glyph unicode="&#xe639;" d="M75 405c-48.352-48.336-75-112.616-75-181 0-68.368 26.648-132.664 75-181 48.336-48.368 112.616-75 181-75 68.368 0 132.664 26.632 181 75 48.368 48.336 75 112.632 75 181 0 68.384-26.632 132.664-75 181-48.336 48.352-112.632 75-181 75-68.384 0-132.664-26.648-181-75zM240 447v-122c-21.952 2.032-42.924 9.096-59.5 21l-69 49c36.288 30.688 81.012 48.672 128.5 52zM272 447c47.056-3.312 91.388-20.808 127.5-51l-65-47c-17.744-12.928-39.764-20.764-62.5-23.5zM422.5 373.5c33.408-37.184 52.996-83.74 56.5-133.5h-207v53.5c29.36 2.912 58.188 12.54 81.5 29.5zM88.5 372.5l73.5-52.5c22.064-15.824 49.456-24.292 78-26.5v-53.5h-207c3.456 49.328 22.62 95.492 55.5 132.5zM33 208h207v-54c-27.152-3.632-53.352-13.256-75-29l-73-53c-34.928 37.616-55.432 85.008-59 136zM272 208h207c-3.376-48.096-21.592-92.956-53-129.5l-69.5 49.5c-23.712 16.992-53.716 26.22-84.5 27.5zM272 123c24.224-1.216 47.84-7.96 66-21l65-46.5c-36.784-32.176-82.28-51.076-131-54.5zM240 121.5v-120.5c-45.776 3.216-88.948 19.78-124.5 48.5l68 49.5c16.112 11.712 36.004 19.156 56.5 22.5z" />
<glyph unicode="&#xe63a;" d="M64 352v-64h-64v-128h64v-64h448v256h-448zM96 128v192h384v-192h-384zM384 288h64v-128h-64z" />
<glyph unicode="&#xe63b;" d="M64 352v-64h-64v-128h64v-64h448v256h-448zM96 128v192h384v-192h-384zM320 288h128v-128h-128z" />
<glyph unicode="&#xe63c;" d="M64 352v-64h-64v-128h64v-64h448v256h-448zM96 128v192h384v-192h-384zM256 288h192v-128h-192z" />
<glyph unicode="&#xe63d;" d="M192 288h256v-128h-256zM96 128v192h384v-192h-384zM64 352v-64h-64v-128h64v-64h448v256h-448z" />
<glyph unicode="&#xe63e;" d="M64 352v-64h-64v-128h64v-64h448v256h-448zM96 128v192h384v-192h-384zM288 256l-32 32h-64l64-64-64-64h64l32 32 32-32h64l-64 64 64 64h-64z" />
<glyph unicode="&#xe63f;" d="M448 288h-320v-128h320v128zM64 352v-64h-64v-128h64v-64h448v256h-448zM480 128h-384v192h384v-192z" />
<glyph unicode="&#xe640;" d="M384 271.984v16.016h-128v-32h-128v-64h128v-32h128v16h64v31.984h-64v32.016h64v31.984zM64 352v-64h-64v-128h64v-64h448v256h-448zM96 128v192h384v-192h-384z" />
<glyph unicode="&#xe641;" d="M448 320v-80c0 26.512-28.656 48-64 48s-64-21.488-64-48c0 26.512-74.992 48-128 48s-128-21.488-128-48v48h-32v-192h32v64h384v-64h32v224h-32z" />
<glyph unicode="&#xe642;" d="M352 128h-64v-32h64v-64h32.032v64h63.968v32h-63.968v64h-32.032zM512 111.984c0 62.672-40.096 115.824-95.968 135.648v168.368h-32v32.016h32v31.984h-368c-1.344-0.064-11.328 0.128-23.136-5.664-11.968-5.312-25.44-20.656-24.88-42.336 0-0.096 0.016-0.192 0.016-0.288v-431.712c0-32 32-32 32-32l337.184 0.064c78.992 0.656 142.784 64.8 142.784 143.92zM45.648 416.304c-2.848 0.416-6.96 1.792-9.264 3.808-2.208 2.144-4.112 3.888-4.352 11.888 0.528 10.336 3.104 10.976 7.152 13.696 2.080 1.040 4.624 1.712 6.464 2 1.872 0.352 2.352 0.224 2.384 0.32h304v-32.016h-304c-0.032 0-0.512-0.032-2.384 0.304zM64.032 0v384h320v-128.96c-5.264 0.592-10.608 0.96-16.032 0.96-16.864 0-32.976-3.040-48-8.368v52.848l-160 39.952v-119.376c-5.024 1.792-10.352 2.944-16 2.944-26.528 0-48-21.536-48-48 0-26.512 21.472-48 48-48 26.464 0 47.984 21.472 48 47.968v0 123.52l96-24.016v-43.744c-38.592-25.824-64-69.792-64-119.728 0-45.264 20.912-85.6 53.568-111.984h-213.536zM368 0c-61.84 0.128-111.904 50.16-112 111.984 0.096 61.84 50.16 111.92 112 112.016 61.84-0.096 111.872-50.176 112-112.016-0.128-61.824-50.16-111.856-112-111.984z" />
<glyph unicode="&#xe643;" d="M304 96h128v-32h-128zM368 192l-64-64h128zM512 111.984c0 62.672-40.096 115.824-95.968 135.648v168.368h-32v32.016h32v31.984h-368c-1.344-0.064-11.328 0.128-23.136-5.664-11.968-5.312-25.44-20.656-24.88-42.336 0-0.096 0.016-0.192 0.016-0.288v-431.712c0-32 32-32 32-32l337.184 0.064c78.992 0.656 142.784 64.8 142.784 143.92zM45.648 416.304c-2.848 0.416-6.96 1.792-9.264 3.808-2.208 2.144-4.112 3.888-4.352 11.888 0.528 10.336 3.104 10.976 7.152 13.696 2.080 1.040 4.624 1.712 6.464 2 1.872 0.352 2.352 0.224 2.384 0.32h304v-32.016h-304c-0.032 0-0.512-0.032-2.384 0.304zM64.032 0v384h320v-128.96c-5.264 0.592-10.608 0.96-16.032 0.96-16.864 0-32.976-3.040-48-8.368v52.848l-160 39.952v-119.376c-5.024 1.792-10.352 2.944-16 2.944-26.528 0-48-21.536-48-48 0-26.512 21.472-48 48-48 26.464 0 47.984 21.472 48 47.968v0 123.52l96-24.016v-43.744c-38.592-25.824-64-69.792-64-119.728 0-45.264 20.912-85.6 53.568-111.984h-213.536zM368 0c-61.84 0.128-111.904 50.16-112 111.984 0.096 61.84 50.16 111.92 112 112.016 61.84-0.096 111.872-50.176 112-112.016-0.128-61.824-50.16-111.856-112-111.984z" />
<glyph unicode="&#xe644;" d="M352 32h32v96h-32v-96zM352 192v-32h32v32h-32zM512 111.984c0 62.672-40.096 115.824-95.968 135.648v168.368h-32v32.016h32v31.984h-368c-1.344-0.064-11.328 0.128-23.136-5.664-11.968-5.312-25.44-20.656-24.88-42.336 0-0.096 0.016-0.192 0.016-0.288v-431.712c0-32 32-32 32-32l337.184 0.064c78.992 0.656 142.784 64.8 142.784 143.92zM45.648 416.304c-2.848 0.416-6.96 1.792-9.264 3.808-2.208 2.144-4.112 3.888-4.352 11.888 0.528 10.336 3.104 10.976 7.152 13.696 2.080 1.040 4.624 1.712 6.464 2 1.872 0.352 2.352 0.224 2.384 0.32h304v-32.016h-304c-0.032 0-0.512-0.032-2.384 0.304zM64.032 0v384h320v-128.96c-5.264 0.592-10.608 0.96-16.032 0.96-16.864 0-32.976-3.040-48-8.368v52.848l-160 39.952v-119.376c-5.024 1.792-10.352 2.944-16 2.944-26.528 0-48-21.536-48-48 0-26.512 21.472-48 48-48 26.464 0 47.984 21.472 48 47.968v0 123.52l96-24.016v-43.744c-38.592-25.824-64-69.792-64-119.728 0-45.264 20.912-85.6 53.568-111.984h-213.536zM368 0c-61.84 0.128-111.904 50.16-112 111.984 0.096 61.84 50.16 111.92 112 112.016 61.84-0.096 111.872-50.176 112-112.016-0.128-61.824-50.16-111.856-112-111.984z" />
<glyph unicode="&#xe645;" d="M320 160h32v-96h-32zM384 160h32v-96h-32zM512 111.984c0 62.672-40.096 115.824-95.968 135.648v168.368h-32v32.016h32v31.984h-368c-1.344-0.064-11.328 0.128-23.136-5.664-11.968-5.312-25.44-20.656-24.88-42.336 0-0.096 0.016-0.192 0.016-0.288v-431.712c0-32 32-32 32-32l337.184 0.064c78.992 0.656 142.784 64.8 142.784 143.92zM45.648 416.304c-2.848 0.416-6.96 1.792-9.264 3.808-2.208 2.144-4.112 3.888-4.352 11.888 0.528 10.336 3.104 10.976 7.152 13.696 2.080 1.040 4.624 1.712 6.464 2 1.872 0.352 2.352 0.224 2.384 0.32h304v-32.016h-304c-0.032 0-0.512-0.032-2.384 0.304zM64.032 0v384h320v-128.96c-5.264 0.592-10.608 0.96-16.032 0.96-16.864 0-32.976-3.040-48-8.368v52.848l-160 39.952v-119.376c-5.024 1.792-10.352 2.944-16 2.944-26.528 0-48-21.536-48-48 0-26.512 21.472-48 48-48 26.464 0 47.984 21.472 48 47.968v0 123.52l96-24.016v-43.744c-38.592-25.824-64-69.792-64-119.728 0-45.264 20.912-85.6 53.568-111.984h-213.536zM368 0c-61.84 0.128-111.904 50.16-112 111.984 0.096 61.84 50.16 111.92 112 112.016 61.84-0.096 111.872-50.176 112-112.016-0.128-61.824-50.16-111.856-112-111.984z" />
<glyph unicode="&#xe646;" d="M288 128h160v-32h-160zM512 111.984c0 62.672-40.096 115.824-95.968 135.648v168.368h-32v32.016h32v31.984h-368c-1.344-0.064-11.328 0.128-23.136-5.664-11.968-5.312-25.44-20.656-24.88-42.336 0-0.096 0.016-0.192 0.016-0.288v-431.712c0-32 32-32 32-32l337.184 0.064c78.992 0.656 142.784 64.8 142.784 143.92zM45.648 416.304c-2.848 0.416-6.96 1.792-9.264 3.808-2.208 2.144-4.112 3.888-4.352 11.888 0.528 10.336 3.104 10.976 7.152 13.696 2.080 1.040 4.624 1.712 6.464 2 1.872 0.352 2.352 0.224 2.384 0.32h304v-32.016h-304c-0.032 0-0.512-0.032-2.384 0.304zM64.032 0v384h320v-128.96c-5.264 0.592-10.608 0.96-16.032 0.96-16.864 0-32.976-3.040-48-8.368v52.848l-160 39.952v-119.376c-5.024 1.792-10.352 2.944-16 2.944-26.528 0-48-21.536-48-48 0-26.512 21.472-48 48-48 26.464 0 47.984 21.472 48 47.968v0 123.52l96-24.016v-43.744c-38.592-25.824-64-69.792-64-119.728 0-45.264 20.912-85.6 53.568-111.984h-213.536zM368 0c-61.84 0.128-111.904 50.16-112 111.984 0.096 61.84 50.16 111.92 112 112.016 61.84-0.096 111.872-50.176 112-112.016-0.128-61.824-50.16-111.856-112-111.984z" />
<glyph unicode="&#xe647;" d="M416 112l-64 64v-128zM512 111.984c0 62.672-40.096 115.824-95.968 135.648v168.368h-32v32.016h32v31.984h-368c-1.344-0.064-11.328 0.128-23.136-5.664-11.968-5.312-25.44-20.656-24.88-42.336 0-0.096 0.016-0.192 0.016-0.288v-431.712c0-32 32-32 32-32l337.184 0.064c78.992 0.656 142.784 64.8 142.784 143.92zM45.648 416.304c-2.848 0.416-6.96 1.792-9.264 3.808-2.208 2.144-4.112 3.888-4.352 11.888 0.528 10.336 3.104 10.976 7.152 13.696 2.080 1.040 4.624 1.712 6.464 2 1.872 0.352 2.352 0.224 2.384 0.32h304v-32.016h-304c-0.032 0-0.512-0.032-2.384 0.304zM64.032 0v384h320v-128.96c-5.264 0.592-10.608 0.96-16.032 0.96-16.864 0-32.976-3.040-48-8.368v52.848l-160 39.952v-119.376c-5.024 1.792-10.352 2.944-16 2.944-26.528 0-48-21.536-48-48 0-26.512 21.472-48 48-48 26.464 0 47.984 21.472 48 47.968v0 123.52l96-24.016v-43.744c-38.592-25.824-64-69.792-64-119.728 0-45.264 20.912-85.6 53.568-111.984h-213.536zM368 0c-61.84 0.128-111.904 50.16-112 111.984 0.096 61.84 50.16 111.92 112 112.016 61.84-0.096 111.872-50.176 112-112.016-0.128-61.824-50.16-111.856-112-111.984z" />
<glyph unicode="&#xe648;" d="M440.038 380.135c-42.803 39.296-112.205 39.296-155.008 0l-29.030-26.675-29.056 26.675c-42.803 39.296-112.179 39.296-154.982 0-48.154-44.186-48.154-115.815 0-160.026l184.038-168.909 184.039 168.909c48.154 44.211 48.154 115.84 0 160.026z" />
<glyph unicode="&#xe649;" d="M418.304 127.968c0.128 2.096 0.224 4.272 0.224 6.544-0.096 10.848-1.408 23.872-8.896 36.144-7.312 12.464-23.008 21.76-41.632 21.328-18.64 0.432-34.368-8.864-41.68-21.328-7.52-12.272-8.832-25.296-8.896-36.144 0-2.288 0.096-4.448 0.224-6.544h-13.648v-80h128v80h-13.696zM349.392 134.512c-0.064 7.648 1.488 15.328 4.064 19.168 2.768 3.632 4.32 5.856 14.544 6.304 10.192-0.432 11.68-2.64 14.464-6.304 2.592-3.84 4.144-11.568 4.048-19.168 0-2.32-0.128-4.48-0.304-6.544h-36.512c-0.16 2.096-0.304 4.288-0.304 6.544zM512 111.984c0 62.672-40.096 115.824-95.968 135.648v168.368h-32v32.016h32v31.984h-368c-1.344-0.064-11.328 0.128-23.136-5.664-11.968-5.312-25.44-20.656-24.88-42.336 0-0.096 0.016-0.192 0.016-0.288v-431.712c0-32 32-32 32-32l337.184 0.064c78.992 0.656 142.784 64.8 142.784 143.92zM45.648 416.304c-2.848 0.416-6.96 1.792-9.264 3.808-2.208 2.144-4.112 3.888-4.352 11.888 0.528 10.336 3.104 10.976 7.152 13.696 2.080 1.040 4.624 1.712 6.464 2 1.872 0.352 2.352 0.224 2.384 0.32h304v-32.016h-304c-0.032 0-0.512-0.032-2.384 0.304zM64.032 0v384h320v-128.96c-5.264 0.592-10.608 0.96-16.032 0.96-16.864 0-32.976-3.040-48-8.368v52.848l-160 39.952v-119.376c-5.024 1.792-10.352 2.944-16 2.944-26.528 0-48-21.536-48-48 0-26.512 21.472-48 48-48 26.464 0 47.984 21.472 48 47.968v0 123.52l96-24.016v-43.744c-38.592-25.824-64-69.792-64-119.728 0-45.264 20.912-85.6 53.568-111.984h-213.536zM368 0c-61.84 0.128-111.904 50.16-112 111.984 0.096 61.84 50.16 111.92 112 112.016 61.84-0.096 111.872-50.176 112-112.016-0.128-61.824-50.16-111.856-112-111.984z" />
<glyph unicode="&#xe64a;" d="M448 96v32.016h-26.608c-1.008 3.392-2.32 6.608-3.92 9.696l18.992 18.992-22.656 22.64-18.64-18.656c-3.52 1.968-7.232 3.536-11.152 4.704v26.608h-32v-26.592c-3.664-1.088-7.136-2.528-10.432-4.32l-18.256 18.24-22.64-22.64 18.24-18.24c-1.792-3.312-3.232-6.784-4.336-10.448h-26.592v-32h26.592c1.168-3.936 2.752-7.664 4.72-11.168l-18.64-18.608 22.608-22.656 19.008 18.992c3.072-1.616 6.304-2.912 9.68-3.92v-26.64h32.032v26.64c3.664 1.088 7.12 2.528 10.416 4.32l19.392-19.392 22.624 22.656-19.392 19.36c1.776 3.296 3.216 6.768 4.32 10.416h26.64zM367.984 88.016c-13.264 0.032-23.968 10.736-24.016 24 0.048 13.264 10.752 23.968 24.016 24.016 13.264-0.048 23.968-10.752 24-24.016-0.032-13.264-10.736-23.968-24-24zM512 111.984c0 62.672-40.096 115.824-95.968 135.648v168.368h-32v32.016h32v31.984h-368c-1.344-0.064-11.328 0.128-23.136-5.664-11.968-5.312-25.44-20.656-24.88-42.336 0-0.096 0.016-0.192 0.016-0.288v-431.712c0-32 32-32 32-32l337.184 0.064c78.992 0.656 142.784 64.8 142.784 143.92zM45.648 416.304c-2.848 0.416-6.96 1.792-9.264 3.808-2.208 2.144-4.112 3.888-4.352 11.888 0.528 10.336 3.104 10.976 7.152 13.696 2.080 1.040 4.624 1.712 6.464 2 1.872 0.352 2.352 0.224 2.384 0.32h304v-32.016h-304c-0.032 0-0.512-0.032-2.384 0.304zM64.032 0v384h320v-128.96c-5.264 0.592-10.608 0.96-16.032 0.96-16.864 0-32.976-3.040-48-8.368v52.848l-160 39.952v-119.376c-5.024 1.792-10.352 2.944-16 2.944-26.528 0-48-21.536-48-48 0-26.512 21.472-48 48-48 26.464 0 47.984 21.472 48 47.968v0 123.52l96-24.016v-43.744c-38.592-25.824-64-69.792-64-119.728 0-45.264 20.912-85.6 53.568-111.984h-213.536zM368 0c-61.84 0.128-111.904 50.16-112 111.984 0.096 61.84 50.16 111.92 112 112.016 61.84-0.096 111.872-50.176 112-112.016-0.128-61.824-50.16-111.856-112-111.984z" />
<glyph unicode="&#xe64b;" d="M320 160h96v-96h-96zM512 111.984c0 62.672-40.096 115.824-95.968 135.648v168.368h-32v32.016h32v31.984h-368c-1.344-0.064-11.328 0.128-23.136-5.664-11.968-5.312-25.44-20.656-24.88-42.336 0-0.096 0.016-0.192 0.016-0.288v-431.712c0-32 32-32 32-32l337.184 0.064c78.992 0.656 142.784 64.8 142.784 143.92zM45.648 416.304c-2.848 0.416-6.96 1.792-9.264 3.808-2.208 2.144-4.112 3.888-4.352 11.888 0.528 10.336 3.104 10.976 7.152 13.696 2.080 1.040 4.624 1.712 6.464 2 1.872 0.352 2.352 0.224 2.384 0.32h304v-32.016h-304c-0.032 0-0.512-0.032-2.384 0.304zM64.032 0v384h320v-128.96c-5.264 0.592-10.608 0.96-16.032 0.96-16.864 0-32.976-3.040-48-8.368v52.848l-160 39.952v-119.376c-5.024 1.792-10.352 2.944-16 2.944-26.528 0-48-21.536-48-48 0-26.512 21.472-48 48-48 26.464 0 47.984 21.472 48 47.968v0 123.52l96-24.016v-43.744c-38.592-25.824-64-69.792-64-119.728 0-45.264 20.912-85.6 53.568-111.984h-213.536zM368 0c-61.84 0.128-111.904 50.16-112 111.984 0.096 61.84 50.16 111.92 112 112.016 61.84-0.096 111.872-50.176 112-112.016-0.128-61.824-50.16-111.856-112-111.984z" />
<glyph unicode="&#xe64c;" d="M336.032 284.496l-160 39.968v-119.408c-5.024 1.792-10.352 2.944-16 2.944-26.528 0-48-21.536-48-48 0-26.512 21.472-48 48-48 26.48 0 48 21.488 48 48v123.52l96-24.016v-86.448c-5.024 1.792-10.352 2.96-16 2.96-26.528 0-48-21.536-48-48 0-26.512 21.472-48 48-48 26.48 0 48 21.488 48 48v156.48zM432.032 464v-31.984h-32v-32.016h32v-448h-384c0 0-32 0-32 32v431.712c0 0.096-0.016 0.192-0.016 0.288-0.544 21.68 12.928 37.024 24.88 42.336 11.824 5.792 21.792 5.6 23.136 5.664h368zM63.968 400c0.032 0 0.048 0 0.064 0h304v32.016h-304c-0.032-0.096-0.512 0.032-2.384-0.304-1.84-0.304-4.384-0.96-6.448-2-4.080-2.736-6.64-3.36-7.168-13.712 0.24-8 2.144-9.744 4.336-11.888 2.32-2.016 6.432-3.392 9.264-3.824 1.536-0.272 2.128-0.288 2.336-0.288zM80.032-16h320v384h-320v-384z" />
<glyph unicode="&#xe64d;" d="M384.032 96h63.968v32h-63.968v64h-32.032v-64h-64v-32h64v-64h32.032zM512 111.984c0 62.672-40.096 115.84-95.968 135.632v168.384h-32v32.016h32v31.984h-368c-1.344-0.064-11.312 0.128-23.136-5.664-11.952-5.312-25.424-20.656-24.88-42.336 0-0.096 0.016-0.192 0.016-0.288v-431.712c0-32 32-32 32-32l337.184 0.064c78.992 0.656 142.784 64.8 142.784 143.92zM45.648 416.304c-2.832 0.416-6.96 1.792-9.28 3.808-2.192 2.144-4.096 3.888-4.336 11.888 0.528 10.336 3.088 10.976 7.152 13.696 2.064 1.040 4.608 1.712 6.448 2 1.888 0.352 2.368 0.224 2.4 0.32h304v-32.016h-304c-0.032 0-0.512-0.032-2.384 0.304zM64.032 0v384h320v-128.96c-5.264 0.592-10.608 0.96-16.032 0.96-5.376 0-10.672-0.336-15.888-0.928-0.032 0.304-0.112 0.656-0.112 0.928 0 32-32 32-32 32h-32l-32 32h-64l-32-32h-32c0 0-32 0-32-32v-96c0-32 32-32 32-32s48.432 0 96.944 0c-0.592-5.264-0.944-10.592-0.944-16.016 0-45.264 20.912-85.6 53.568-111.984h-213.536zM232.688 160.88c-2.816-0.528-5.712-0.88-8.688-0.88-26.528 0-48 21.472-48 48 0 26.496 21.472 48 48 48 23.008 0 42.24-16.256 46.896-37.888-17.008-15.584-30.224-35.12-38.208-57.232zM368 0c-61.84 0.128-111.904 50.16-112 111.984 0.096 61.84 50.16 111.92 112 112 61.84-0.096 111.872-50.16 112-112-0.128-61.824-50.16-111.856-112-111.984z" />
<glyph unicode="&#xe64e;" d="M352 32h32v96h-32v-96zM352 192v-32h32v32h-32zM512 111.984c0 62.672-40.096 115.84-95.968 135.632v168.384h-32v32.016h32v31.984h-368c-1.344-0.064-11.312 0.128-23.136-5.664-11.952-5.312-25.424-20.656-24.88-42.336 0-0.096 0.016-0.192 0.016-0.288v-431.712c0-32 32-32 32-32l337.184 0.064c78.992 0.656 142.784 64.8 142.784 143.92zM45.648 416.304c-2.832 0.416-6.96 1.792-9.28 3.808-2.192 2.144-4.096 3.888-4.336 11.888 0.528 10.336 3.088 10.976 7.152 13.696 2.064 1.040 4.608 1.712 6.448 2 1.888 0.352 2.368 0.224 2.4 0.32h304v-32.016h-304c-0.032 0-0.512-0.032-2.384 0.304zM64.032 0v384h320v-128.96c-5.264 0.592-10.608 0.96-16.032 0.96-5.376 0-10.672-0.336-15.888-0.928-0.032 0.304-0.112 0.656-0.112 0.928 0 32-32 32-32 32h-32l-32 32h-64l-32-32h-32c0 0-32 0-32-32v-96c0-32 32-32 32-32s48.432 0 96.944 0c-0.592-5.264-0.944-10.592-0.944-16.016 0-45.264 20.912-85.6 53.568-111.984h-213.536zM232.688 160.88c-2.816-0.528-5.712-0.88-8.688-0.88-26.528 0-48 21.472-48 48 0 26.496 21.472 48 48 48 23.008 0 42.24-16.256 46.896-37.888-17.008-15.584-30.224-35.12-38.208-57.232zM368 0c-61.84 0.128-111.904 50.16-112 111.984 0.096 61.84 50.16 111.92 112 112 61.84-0.096 111.872-50.16 112-112-0.128-61.824-50.16-111.856-112-111.984z" />
<glyph unicode="&#xe64f;" d="M320 160h32v-96h-32zM384 160h32v-96h-32zM512 111.984c0 62.672-40.096 115.84-95.968 135.632v168.384h-32v32.016h32v31.984h-368c-1.344-0.064-11.312 0.128-23.136-5.664-11.952-5.312-25.424-20.656-24.88-42.336 0-0.096 0.016-0.192 0.016-0.288v-431.712c0-32 32-32 32-32l337.184 0.064c78.992 0.656 142.784 64.8 142.784 143.92zM45.648 416.304c-2.832 0.416-6.96 1.792-9.28 3.808-2.192 2.144-4.096 3.888-4.336 11.888 0.528 10.336 3.088 10.976 7.152 13.696 2.064 1.040 4.608 1.712 6.448 2 1.888 0.352 2.368 0.224 2.4 0.32h304v-32.016h-304c-0.032 0-0.512-0.032-2.384 0.304zM64.032 0v384h320v-128.96c-5.264 0.592-10.608 0.96-16.032 0.96-5.376 0-10.672-0.336-15.888-0.928-0.032 0.304-0.112 0.656-0.112 0.928 0 32-32 32-32 32h-32l-32 32h-64l-32-32h-32c0 0-32 0-32-32v-96c0-32 32-32 32-32s48.432 0 96.944 0c-0.592-5.264-0.944-10.592-0.944-16.016 0-45.264 20.912-85.6 53.568-111.984h-213.536zM232.688 160.88c-2.816-0.528-5.712-0.88-8.688-0.88-26.528 0-48 21.472-48 48 0 26.496 21.472 48 48 48 23.008 0 42.24-16.256 46.896-37.888-17.008-15.584-30.224-35.12-38.208-57.232zM368 0c-61.84 0.128-111.904 50.16-112 111.984 0.096 61.84 50.16 111.92 112 112 61.84-0.096 111.872-50.16 112-112-0.128-61.824-50.16-111.856-112-111.984z" />
<glyph unicode="&#xe650;" d="M512 111.984c0 62.672-40.096 115.84-95.968 135.632v168.384h-32v32.016h32v31.984h-368c-1.344-0.064-11.312 0.128-23.136-5.664-11.952-5.312-25.424-20.656-24.88-42.336 0-0.096 0.016-0.192 0.016-0.288v-431.712c0-32 32-32 32-32l337.184 0.064c78.992 0.656 142.784 64.8 142.784 143.92zM45.648 416.304c-2.832 0.416-6.96 1.792-9.28 3.808-2.192 2.144-4.096 3.888-4.336 11.888 0.528 10.336 3.088 10.976 7.152 13.696 2.064 1.040 4.608 1.712 6.448 2 1.888 0.352 2.368 0.224 2.4 0.32h304v-32.016h-304c-0.032 0-0.512-0.032-2.384 0.304zM64.032 0v384h320v-128.96c-5.264 0.592-10.608 0.96-16.032 0.96-5.376 0-10.672-0.336-15.888-0.928-0.032 0.304-0.112 0.656-0.112 0.928 0 32-32 32-32 32h-32l-32 32h-64l-32-32h-32c0 0-32 0-32-32v-96c0-32 32-32 32-32s48.432 0 96.944 0c-0.592-5.264-0.944-10.592-0.944-16.016 0-45.264 20.912-85.6 53.568-111.984h-213.536zM232.688 160.88c-2.816-0.528-5.712-0.88-8.688-0.88-26.528 0-48 21.472-48 48 0 26.496 21.472 48 48 48 23.008 0 42.24-16.256 46.896-37.888-17.008-15.584-30.224-35.12-38.208-57.232zM368 0c-61.84 0.128-111.904 50.16-112 111.984 0.096 61.84 50.16 111.92 112 112 61.84-0.096 111.872-50.16 112-112-0.128-61.824-50.16-111.856-112-111.984zM288 128h160v-32h-160z" />
<glyph unicode="&#xe651;" d="M416 112l-64 64v-128zM512 111.984c0 62.672-40.096 115.84-95.968 135.632v168.384h-32v32.016h32v31.984h-368c-1.344-0.064-11.312 0.128-23.136-5.664-11.952-5.312-25.424-20.656-24.88-42.336 0-0.096 0.016-0.192 0.016-0.288v-431.712c0-32 32-32 32-32l337.184 0.064c78.992 0.656 142.784 64.8 142.784 143.92zM45.648 416.304c-2.832 0.416-6.96 1.792-9.28 3.808-2.192 2.144-4.096 3.888-4.336 11.888 0.528 10.336 3.088 10.976 7.152 13.696 2.064 1.040 4.608 1.712 6.448 2 1.888 0.352 2.368 0.224 2.4 0.32h304v-32.016h-304c-0.032 0-0.512-0.032-2.384 0.304zM64.032 0v384h320v-128.96c-5.264 0.592-10.608 0.96-16.032 0.96-5.376 0-10.672-0.336-15.888-0.928-0.032 0.304-0.112 0.656-0.112 0.928 0 32-32 32-32 32h-32l-32 32h-64l-32-32h-32c0 0-32 0-32-32v-96c0-32 32-32 32-32s48.432 0 96.944 0c-0.592-5.264-0.944-10.592-0.944-16.016 0-45.264 20.912-85.6 53.568-111.984h-213.536zM232.688 160.88c-2.816-0.528-5.712-0.88-8.688-0.88-26.528 0-48 21.472-48 48 0 26.496 21.472 48 48 48 23.008 0 42.24-16.256 46.896-37.888-17.008-15.584-30.224-35.12-38.208-57.232zM368 0c-61.84 0.128-111.904 50.16-112 111.984 0.096 61.84 50.16 111.92 112 112 61.84-0.096 111.872-50.16 112-112-0.128-61.824-50.16-111.856-112-111.984z" />
<glyph unicode="&#xe652;" d="M418.304 128c0.128 2.096 0.224 4.272 0.224 6.544-0.096 10.848-1.408 23.872-8.896 36.144-7.312 12.464-23.008 21.76-41.632 21.328-18.64 0.432-34.368-8.864-41.68-21.328-7.52-12.272-8.832-25.296-8.896-36.144 0-2.288 0.096-4.448 0.224-6.544h-13.648v-80h128v80h-13.696zM349.392 134.544c-0.064 7.648 1.488 15.328 4.064 19.168 2.768 3.632 4.32 5.856 14.544 6.304 10.192-0.432 11.68-2.64 14.464-6.304 2.592-3.84 4.144-11.568 4.048-19.168 0-2.32-0.128-4.48-0.304-6.544h-36.512c-0.16 2.096-0.304 4.288-0.304 6.544zM512 111.984c0 62.672-40.096 115.84-95.968 135.632v168.384h-32v32.016h32v31.984h-368c-1.344-0.064-11.312 0.128-23.136-5.664-11.952-5.312-25.424-20.656-24.88-42.336 0-0.096 0.016-0.192 0.016-0.288v-431.712c0-32 32-32 32-32l337.184 0.064c78.992 0.656 142.784 64.8 142.784 143.92zM45.648 416.304c-2.832 0.416-6.96 1.792-9.28 3.808-2.192 2.144-4.096 3.888-4.336 11.888 0.528 10.336 3.088 10.976 7.152 13.696 2.064 1.040 4.608 1.712 6.448 2 1.888 0.352 2.368 0.224 2.4 0.32h304v-32.016h-304c-0.032 0-0.512-0.032-2.384 0.304zM64.032 0v384h320v-128.96c-5.264 0.592-10.608 0.96-16.032 0.96-5.376 0-10.672-0.336-15.888-0.928-0.032 0.304-0.112 0.656-0.112 0.928 0 32-32 32-32 32h-32l-32 32h-64l-32-32h-32c0 0-32 0-32-32v-96c0-32 32-32 32-32s48.432 0 96.944 0c-0.592-5.264-0.944-10.592-0.944-16.016 0-45.264 20.912-85.6 53.568-111.984h-213.536zM232.688 160.88c-2.816-0.528-5.712-0.88-8.688-0.88-26.528 0-48 21.472-48 48 0 26.496 21.472 48 48 48 23.008 0 42.24-16.256 46.896-37.888-17.008-15.584-30.224-35.12-38.208-57.232zM368 0c-61.84 0.128-111.904 50.16-112 111.984 0.096 61.84 50.16 111.92 112 112 61.84-0.096 111.872-50.16 112-112-0.128-61.824-50.16-111.856-112-111.984z" />
<glyph unicode="&#xe653;" d="M448 96v32.016h-26.608c-1.008 3.392-2.32 6.608-3.92 9.696l18.992 18.992-22.656 22.64-18.64-18.656c-3.52 1.968-7.232 3.536-11.152 4.704v26.608h-32v-26.592c-3.664-1.088-7.136-2.528-10.432-4.32l-18.256 18.24-22.64-22.64 18.24-18.24c-1.792-3.312-3.232-6.784-4.336-10.448h-26.592v-32h26.592c1.168-3.936 2.752-7.664 4.72-11.168l-18.64-18.608 22.608-22.656 19.008 18.992c3.072-1.616 6.304-2.912 9.68-3.92v-26.64h32.032v26.64c3.664 1.088 7.12 2.528 10.416 4.32l19.392-19.392 22.624 22.656-19.392 19.36c1.776 3.296 3.216 6.768 4.32 10.416h26.64zM367.984 88.016c-13.264 0.032-23.968 10.736-24.016 24 0.048 13.264 10.752 23.968 24.016 24.016 13.264-0.048 23.968-10.752 24-24.016-0.032-13.264-10.736-23.968-24-24zM512 111.984c0 62.672-40.096 115.84-95.968 135.632v168.384h-32v32.016h32v31.984h-368c-1.344-0.064-11.312 0.128-23.136-5.664-11.952-5.312-25.424-20.656-24.88-42.336 0-0.096 0.016-0.192 0.016-0.288v-431.712c0-32 32-32 32-32l337.184 0.064c78.992 0.656 142.784 64.8 142.784 143.92zM45.648 416.304c-2.832 0.416-6.96 1.792-9.28 3.808-2.192 2.144-4.096 3.888-4.336 11.888 0.528 10.336 3.088 10.976 7.152 13.696 2.064 1.040 4.608 1.712 6.448 2 1.888 0.352 2.368 0.224 2.4 0.32h304v-32.016h-304c-0.032 0-0.512-0.032-2.384 0.304zM64.032 0v384h320v-128.96c-5.264 0.592-10.608 0.96-16.032 0.96-5.376 0-10.672-0.336-15.888-0.928-0.032 0.304-0.112 0.656-0.112 0.928 0 32-32 32-32 32h-32l-32 32h-64l-32-32h-32c0 0-32 0-32-32v-96c0-32 32-32 32-32s48.432 0 96.944 0c-0.592-5.264-0.944-10.592-0.944-16.016 0-45.264 20.912-85.6 53.568-111.984h-213.536zM232.688 160.88c-2.816-0.528-5.712-0.88-8.688-0.88-26.528 0-48 21.472-48 48 0 26.496 21.472 48 48 48 23.008 0 42.24-16.256 46.896-37.888-17.008-15.584-30.224-35.12-38.208-57.232zM368 0c-61.84 0.128-111.904 50.16-112 111.984 0.096 61.84 50.16 111.92 112 112 61.84-0.096 111.872-50.16 112-112-0.128-61.824-50.16-111.856-112-111.984z" />
<glyph unicode="&#xe654;" d="M320 160h96v-96h-96zM512 111.984c0 62.672-40.096 115.84-95.968 135.632v168.384h-32v32.016h32v31.984h-368c-1.344-0.064-11.312 0.128-23.136-5.664-11.952-5.312-25.424-20.656-24.88-42.336 0-0.096 0.016-0.192 0.016-0.288v-431.712c0-32 32-32 32-32l337.184 0.064c78.992 0.656 142.784 64.8 142.784 143.92zM45.648 416.304c-2.832 0.416-6.96 1.792-9.28 3.808-2.192 2.144-4.096 3.888-4.336 11.888 0.528 10.336 3.088 10.976 7.152 13.696 2.064 1.040 4.608 1.712 6.448 2 1.888 0.352 2.368 0.224 2.4 0.32h304v-32.016h-304c-0.032 0-0.512-0.032-2.384 0.304zM64.032 0v384h320v-128.96c-5.264 0.592-10.608 0.96-16.032 0.96-5.376 0-10.672-0.336-15.888-0.928-0.032 0.304-0.112 0.656-0.112 0.928 0 32-32 32-32 32h-32l-32 32h-64l-32-32h-32c0 0-32 0-32-32v-96c0-32 32-32 32-32s48.432 0 96.944 0c-0.592-5.264-0.944-10.592-0.944-16.016 0-45.264 20.912-85.6 53.568-111.984h-213.536zM232.688 160.88c-2.816-0.528-5.712-0.88-8.688-0.88-26.528 0-48 21.472-48 48 0 26.496 21.472 48 48 48 23.008 0 42.24-16.256 46.896-37.888-17.008-15.584-30.224-35.12-38.208-57.232zM368 0c-61.84 0.128-111.904 50.16-112 111.984 0.096 61.84 50.16 111.92 112 112 61.84-0.096 111.872-50.16 112-112-0.128-61.824-50.16-111.856-112-111.984z" />
<glyph unicode="&#xe655;" d="M336 272h-32l-32 32h-64l-32-32h-32c0 0-32 0-32-32 0-17.088 0-75.28 0-96 0-32 32-32 32-32s170.256 0 192 0c32 0 32 32 32 32s0 64 0 96c0 32-32 32-32 32zM240 144c-26.528 0-48 21.472-48 48 0 26.496 21.472 48 48 48 26.48 0 48-21.504 48-48 0-26.528-21.52-48-48-48zM432.032 464v-31.984h-32v-32.016h32v-448h-384c0 0-32 0-32 32v431.712c0 0.096-0.016 0.192-0.016 0.288-0.56 21.68 12.912 37.024 24.88 42.336 11.808 5.792 21.792 5.6 23.136 5.664h368zM63.968 400c0.032 0 0.064 0 0.064 0h304v32.016h-304c-0.032-0.096-0.512 0.032-2.384-0.304-1.84-0.304-4.384-0.96-6.464-2-4.048-2.736-6.624-3.36-7.152-13.712 0.24-8 2.144-9.744 4.352-11.888 2.304-2.016 6.416-3.392 9.264-3.824 1.52-0.272 2.128-0.288 2.32-0.288zM80.032-16h320v384h-320v-384z" />
<glyph unicode="&#xe656;" d="M352 128h-64v-32h64v-64h32.032v64h63.968v32h-63.968v64h-32.032zM512 111.984c0 62.672-40.096 115.824-95.968 135.648v168.368h-32v32.016h32v31.984h-368c-1.344-0.064-11.328 0.128-23.136-5.664-11.968-5.312-25.44-20.656-24.88-42.336 0-0.096 0.016-0.192 0.016-0.288v-431.712c0-32 32-32 32-32l337.184 0.064c78.992 0.656 142.784 64.8 142.784 143.92zM45.648 416.304c-2.848 0.416-6.96 1.792-9.264 3.808-2.208 2.144-4.112 3.888-4.352 11.888 0.528 10.336 3.104 10.976 7.152 13.696 2.080 1.040 4.624 1.712 6.464 2 1.872 0.352 2.352 0.224 2.384 0.32h304v-32.016h-304c-0.032 0-0.512-0.032-2.384 0.304zM64.032 0v384h320v-128.96c-5.264 0.592-10.608 0.96-16.032 0.96-79.552 0-144-64.464-144-144.016 0-45.264 20.912-85.6 53.568-111.984h-213.536zM368 0c-61.84 0.128-111.904 50.16-112 111.984 0.096 61.84 50.16 111.92 112 112.016 61.84-0.096 111.872-50.176 112-112.016-0.128-61.824-50.16-111.856-112-111.984z" />
<glyph unicode="&#xe657;" d="M368 64l64 64h-128zM512 111.984c0 62.672-40.096 115.84-95.968 135.632v168.384h-32v32.016h32v31.984h-368c-1.344-0.064-11.328 0.128-23.136-5.664-11.968-5.312-25.44-20.656-24.88-42.336 0-0.096 0.016-0.192 0.016-0.288v-431.712c0-32 32-32 32-32l337.184 0.064c78.992 0.656 142.784 64.8 142.784 143.92zM45.648 416.304c-2.848 0.416-6.96 1.792-9.264 3.808-2.208 2.144-4.112 3.888-4.352 11.888 0.528 10.336 3.104 10.976 7.152 13.696 2.080 1.040 4.624 1.712 6.464 2 1.872 0.352 2.352 0.224 2.384 0.32h304v-32.016h-304c-0.032 0-0.512-0.032-2.384 0.304zM64.032 0v384h320v-128.96c-5.264 0.592-10.608 0.96-16.032 0.96-79.552 0-144-64.464-144-144 0-45.264 20.912-85.6 53.568-111.984h-213.536zM368 0c-61.84 0.128-111.904 50.16-112 111.984 0.096 61.84 50.16 111.92 112 112.016 61.84-0.096 111.872-50.176 112-112.016-0.128-61.824-50.16-111.856-112-111.984z" />
<glyph unicode="&#xe658;" d="M352 32h32v96h-32v-96zM352 192v-32h32v32h-32zM512 111.984c0 62.672-40.096 115.84-95.968 135.632v168.384h-32v32.016h32v31.984h-368c-1.344-0.064-11.328 0.128-23.136-5.664-11.968-5.312-25.44-20.656-24.88-42.336 0-0.096 0.016-0.192 0.016-0.288v-431.712c0-32 32-32 32-32l337.184 0.064c78.992 0.656 142.784 64.8 142.784 143.92zM45.648 416.304c-2.848 0.416-6.96 1.792-9.264 3.808-2.208 2.144-4.112 3.888-4.352 11.888 0.528 10.336 3.104 10.976 7.152 13.696 2.080 1.040 4.624 1.712 6.464 2 1.872 0.352 2.352 0.224 2.384 0.32h304v-32.016h-304c-0.032 0-0.512-0.032-2.384 0.304zM64.032 0v384h320v-128.96c-5.264 0.592-10.608 0.96-16.032 0.96-79.552 0-144-64.464-144-144 0-45.264 20.912-85.6 53.568-111.984h-213.536zM368 0c-61.84 0.128-111.904 50.16-112 111.984 0.096 61.84 50.16 111.92 112 112.016 61.84-0.096 111.872-50.176 112-112.016-0.128-61.824-50.16-111.856-112-111.984z" />
<glyph unicode="&#xe659;" d="M288 128h160v-32h-160zM512 111.984c0 62.672-40.096 115.824-95.968 135.648v168.368h-32v32.016h32v31.984h-368c-1.344-0.064-11.328 0.128-23.136-5.664-11.968-5.312-25.44-20.656-24.88-42.336 0-0.096 0.016-0.192 0.016-0.288v-431.712c0-32 32-32 32-32l337.184 0.064c78.992 0.656 142.784 64.8 142.784 143.92zM45.648 416.304c-2.848 0.416-6.96 1.792-9.264 3.808-2.208 2.144-4.112 3.888-4.352 11.888 0.528 10.336 3.104 10.976 7.152 13.696 2.080 1.040 4.624 1.712 6.464 2 1.872 0.352 2.352 0.224 2.384 0.32h304v-32.016h-304c-0.032 0-0.512-0.032-2.384 0.304zM64.032 0v384h320v-128.96c-5.264 0.592-10.608 0.96-16.032 0.96-79.552 0-144-64.464-144-144.016 0-45.264 20.912-85.6 53.568-111.984h-213.536zM368 0c-61.84 0.128-111.904 50.16-112 111.984 0.096 61.84 50.16 111.92 112 112.016 61.84-0.096 111.872-50.176 112-112.016-0.128-61.824-50.16-111.856-112-111.984z" />
<glyph unicode="&#xe65a;" d="M416 112l-64 64v-128zM512 111.984c0 62.672-40.096 115.84-95.968 135.632v168.384h-32v32.016h32v31.984h-368c-1.344-0.064-11.328 0.128-23.136-5.664-11.968-5.312-25.44-20.656-24.88-42.336 0-0.096 0.016-0.192 0.016-0.288v-431.712c0-32 32-32 32-32l337.184 0.064c78.992 0.656 142.784 64.8 142.784 143.92zM45.648 416.304c-2.848 0.416-6.96 1.792-9.264 3.808-2.208 2.144-4.112 3.888-4.352 11.888 0.528 10.336 3.104 10.976 7.152 13.696 2.080 1.040 4.624 1.712 6.464 2 1.872 0.352 2.352 0.224 2.384 0.32h304v-32.016h-304c-0.032 0-0.512-0.032-2.384 0.304zM64.032 0v384h320v-128.96c-5.264 0.592-10.608 0.96-16.032 0.96-79.552 0-144-64.464-144-144 0-45.264 20.912-85.6 53.568-111.984h-213.536zM368 0c-61.84 0.128-111.904 50.16-112 111.984 0.096 61.84 50.16 111.92 112 112.016 61.84-0.096 111.872-50.176 112-112.016-0.128-61.824-50.16-111.856-112-111.984z" />
<glyph unicode="&#xe65b;" d="M418.304 128c0.128 2.096 0.224 4.272 0.224 6.544-0.096 10.848-1.408 23.872-8.896 36.144-7.312 12.464-23.008 21.76-41.632 21.328-18.64 0.432-34.368-8.864-41.68-21.328-7.52-12.272-8.832-25.296-8.896-36.144 0-2.288 0.096-4.448 0.224-6.544h-13.648v-80h128v80h-13.696zM349.392 134.544c-0.064 7.648 1.488 15.328 4.064 19.168 2.768 3.632 4.32 5.856 14.544 6.304 10.192-0.432 11.68-2.64 14.464-6.304 2.592-3.84 4.144-11.568 4.048-19.168 0-2.32-0.128-4.48-0.304-6.544h-36.512c-0.16 2.096-0.304 4.288-0.304 6.544zM512 111.984c0 62.672-40.096 115.824-95.968 135.648v168.368h-32v32.016h32v31.984h-368c-1.344-0.064-11.328 0.128-23.136-5.664-11.968-5.312-25.44-20.656-24.88-42.336 0-0.096 0.016-0.192 0.016-0.288v-431.712c0-32 32-32 32-32l337.184 0.064c78.992 0.656 142.784 64.8 142.784 143.92zM45.648 416.304c-2.848 0.416-6.96 1.792-9.264 3.808-2.208 2.144-4.112 3.888-4.352 11.888 0.528 10.336 3.104 10.976 7.152 13.696 2.080 1.040 4.624 1.712 6.464 2 1.872 0.352 2.352 0.224 2.384 0.32h304v-32.016h-304c-0.032 0-0.512-0.032-2.384 0.304zM64.032 0v384h320v-128.96c-5.264 0.592-10.608 0.96-16.032 0.96-79.552 0-144-64.464-144-144.016 0-45.264 20.912-85.6 53.568-111.984h-213.536zM368 0c-61.84 0.128-111.904 50.16-112 111.984 0.096 61.84 50.16 111.92 112 112.016 61.84-0.096 111.872-50.176 112-112.016-0.128-61.824-50.16-111.856-112-111.984z" />
<glyph unicode="&#xe65c;" d="M368 160l-64-64h128zM512 111.984c0 62.672-40.096 115.84-95.968 135.632v168.384h-32v32.016h32v31.984h-368c-1.344-0.064-11.328 0.128-23.136-5.664-11.968-5.312-25.44-20.656-24.88-42.336 0-0.096 0.016-0.192 0.016-0.288v-431.712c0-32 32-32 32-32l337.184 0.064c78.992 0.656 142.784 64.8 142.784 143.92zM45.648 416.304c-2.848 0.416-6.96 1.792-9.264 3.808-2.208 2.144-4.112 3.888-4.352 11.888 0.528 10.336 3.104 10.976 7.152 13.696 2.080 1.040 4.624 1.712 6.464 2 1.872 0.352 2.352 0.224 2.384 0.32h304v-32.016h-304c-0.032 0-0.512-0.032-2.384 0.304zM64.032 0v384h320v-128.96c-5.264 0.592-10.608 0.96-16.032 0.96-79.552 0-144-64.464-144-144 0-45.264 20.912-85.6 53.568-111.984h-213.536zM368 0c-61.84 0.128-111.904 50.16-112 111.984 0.096 61.84 50.16 111.92 112 112.016 61.84-0.096 111.872-50.176 112-112.016-0.128-61.824-50.16-111.856-112-111.984z" />
<glyph unicode="&#xe65d;" d="M432.032 464v-31.984h-32v-32.016h32v-448h-384c0 0-32 0-32 32v431.712c0 0.096-0.016 0.192-0.016 0.288-0.56 21.68 12.912 37.024 24.88 42.336 11.808 5.792 21.792 5.6 23.136 5.664h368zM63.968 400c0.032 0 0.064 0 0.064 0h304v32.016h-304c-0.032-0.096-0.512 0.032-2.384-0.304-1.84-0.304-4.384-0.96-6.464-2-4.048-2.736-6.624-3.36-7.152-13.712 0.24-8 2.144-9.744 4.352-11.888 2.304-2.016 6.416-3.392 9.264-3.824 1.52-0.272 2.128-0.288 2.32-0.288zM80.032-16h320v384h-320v-384z" />
<glyph unicode="&#xe65e;" d="M352 128h-64v-32h64v-64h32.032v64h63.968v32h-63.968v64h-32.032zM512 111.984c0 62.672-40.096 115.84-95.968 135.632v168.384h-32v32.016h32v31.984h-368c-1.344-0.064-11.328 0.128-23.136-5.664-11.968-5.312-25.44-20.656-24.88-42.336 0-0.096 0.016-0.192 0.016-0.288v-431.712c0-32 32-32 32-32l337.184 0.064c78.992 0.656 142.784 64.8 142.784 143.92zM45.648 416.304c-2.848 0.416-6.96 1.792-9.264 3.808-2.208 2.144-4.112 3.888-4.352 11.888 0.528 10.336 3.104 10.976 7.152 13.696 2.080 1.040 4.624 1.712 6.464 2 1.872 0.352 2.352 0.224 2.384 0.32h304v-32.016h-304c-0.032 0-0.512-0.032-2.384 0.304zM64 0v384h320v-128.96c-5.264 0.592-10.608 0.96-16.032 0.96-34.272 0-65.696-12.016-90.416-32h-181.552v-32h152.256c-6.608-9.856-11.888-20.624-15.92-32h-136.336v-32h128.912c-0.576-5.264-0.944-10.592-0.944-16.016 0-45.264 20.912-85.6 53.568-111.984h-213.536zM368 0c-61.84 0.128-111.904 50.16-112 111.984 0.096 61.84 50.16 111.92 112 112 61.84-0.096 111.872-50.16 112-112-0.128-61.824-50.16-111.856-112-111.984zM352 288h-256v-32h256v32z" />
<glyph unicode="&#xe65f;" d="M368 64l64 64h-128zM512 111.984c0 62.672-40.096 115.84-95.968 135.632v168.384h-32v32.016h32v31.984h-368c-1.344-0.064-11.328 0.128-23.136-5.664-11.968-5.312-25.44-20.656-24.88-42.336 0-0.096 0.016-0.192 0.016-0.288v-431.712c0-32 32-32 32-32l337.184 0.064c78.992 0.656 142.784 64.8 142.784 143.92zM45.648 416.304c-2.848 0.416-6.96 1.792-9.264 3.808-2.208 2.144-4.112 3.888-4.352 11.888 0.528 10.336 3.104 10.976 7.152 13.696 2.080 1.040 4.624 1.712 6.464 2 1.872 0.352 2.352 0.224 2.384 0.32h304v-32.016h-304c-0.032 0-0.512-0.032-2.384 0.304zM64 0v384h320v-128.96c-5.264 0.592-10.608 0.96-16.032 0.96-34.272 0-65.696-12.016-90.416-32h-181.552v-32h152.256c-6.608-9.856-11.888-20.624-15.92-32h-136.336v-32h128.912c-0.576-5.264-0.944-10.592-0.944-16.016 0-45.264 20.912-85.6 53.568-111.984h-213.536zM368 0c-61.84 0.128-111.904 50.16-112 111.984 0.096 61.84 50.16 111.92 112 112.016 61.84-0.096 111.872-50.176 112-112.016-0.128-61.824-50.16-111.856-112-111.984zM352 288h-256v-32h256v32z" />
<glyph unicode="&#xe660;" d="M352 32h32v96h-32v-96zM352 192v-32h32v32h-32zM512 111.984c0 62.672-40.096 115.84-95.968 135.632v168.384h-32v32.016h32v31.984h-368c-1.344-0.064-11.328 0.128-23.136-5.664-11.968-5.312-25.44-20.656-24.88-42.336 0-0.096 0.016-0.192 0.016-0.288v-431.712c0-32 32-32 32-32l337.184 0.064c78.992 0.656 142.784 64.8 142.784 143.92zM45.648 416.304c-2.848 0.416-6.96 1.792-9.264 3.808-2.208 2.144-4.112 3.888-4.352 11.888 0.528 10.336 3.104 10.976 7.152 13.696 2.080 1.040 4.624 1.712 6.464 2 1.872 0.352 2.352 0.224 2.384 0.32h304v-32.016h-304c-0.032 0-0.512-0.032-2.384 0.304zM64 0v384h320v-128.96c-5.264 0.592-10.608 0.96-16.032 0.96-34.272 0-65.696-12.016-90.416-32h-181.552v-32h152.256c-6.608-9.856-11.888-20.624-15.92-32h-136.336v-32h128.912c-0.576-5.264-0.944-10.592-0.944-16.016 0-45.264 20.912-85.6 53.568-111.984h-213.536zM368 0c-61.84 0.128-111.904 50.16-112 111.984 0.096 61.84 50.16 111.92 112 112.016 61.84-0.096 111.872-50.176 112-112.016-0.128-61.824-50.16-111.856-112-111.984zM352 288h-256v-32h256v32z" />
<glyph unicode="&#xe661;" d="M288 128h160v-32h-160zM512 111.984c0 62.672-40.096 115.84-95.968 135.632v168.384h-32v32.016h32v31.984h-368c-1.344-0.064-11.328 0.128-23.136-5.664-11.968-5.312-25.44-20.656-24.88-42.336 0-0.096 0.016-0.192 0.016-0.288v-431.712c0-32 32-32 32-32l337.184 0.064c78.992 0.656 142.784 64.8 142.784 143.92zM45.648 416.304c-2.848 0.416-6.96 1.792-9.264 3.808-2.208 2.144-4.112 3.888-4.352 11.888 0.528 10.336 3.104 10.976 7.152 13.696 2.080 1.040 4.624 1.712 6.464 2 1.872 0.352 2.352 0.224 2.384 0.32h304v-32.016h-304c-0.032 0-0.512-0.032-2.384 0.304zM64 0v384h320v-128.96c-5.264 0.592-10.608 0.96-16.032 0.96-34.272 0-65.696-12.016-90.416-32h-181.552v-32h152.256c-6.608-9.856-11.888-20.624-15.92-32h-136.336v-32h128.912c-0.576-5.264-0.944-10.592-0.944-16.016 0-45.264 20.912-85.6 53.568-111.984h-213.536zM368 0c-61.84 0.128-111.904 50.16-112 111.984 0.096 61.84 50.16 111.92 112 112 61.84-0.096 111.872-50.16 112-112-0.128-61.824-50.16-111.856-112-111.984zM352 288h-256v-32h256v32z" />
<glyph unicode="&#xe662;" d="M416 112l-64 64v-128zM512 111.984c0 62.672-40.096 115.84-95.968 135.632v168.384h-32v32.016h32v31.984h-368c-1.344-0.064-11.328 0.128-23.136-5.664-11.968-5.312-25.44-20.656-24.88-42.336 0-0.096 0.016-0.192 0.016-0.288v-431.712c0-32 32-32 32-32l337.184 0.064c78.992 0.656 142.784 64.8 142.784 143.92zM45.648 416.304c-2.848 0.416-6.96 1.792-9.264 3.808-2.208 2.144-4.112 3.888-4.352 11.888 0.528 10.336 3.104 10.976 7.152 13.696 2.080 1.040 4.624 1.712 6.464 2 1.872 0.352 2.352 0.224 2.384 0.32h304v-32.016h-304c-0.032 0-0.512-0.032-2.384 0.304zM64 0v384h320v-128.96c-5.264 0.592-10.608 0.96-16.032 0.96-34.272 0-65.696-12.016-90.416-32h-181.552v-32h152.256c-6.608-9.856-11.888-20.624-15.92-32h-136.336v-32h128.912c-0.576-5.264-0.944-10.592-0.944-16.016 0-45.264 20.912-85.6 53.568-111.984h-213.536zM368 0c-61.84 0.128-111.904 50.16-112 111.984 0.096 61.84 50.16 111.92 112 112 61.84-0.096 111.872-50.16 112-112-0.128-61.824-50.16-111.856-112-111.984zM352 288h-256v-32h256v32z" />
<glyph unicode="&#xe663;" d="M418.304 127.984c0.128 2.096 0.224 4.272 0.224 6.544-0.096 10.848-1.408 23.856-8.896 36.128-7.312 12.464-23.008 21.76-41.632 21.328-18.64 0.432-34.368-8.864-41.68-21.328-7.52-12.272-8.832-25.28-8.896-36.128 0-2.288 0.096-4.448 0.224-6.544h-13.648v-79.984h128v79.984h-13.696zM349.392 134.528c-0.064 7.648 1.488 15.328 4.064 19.168 2.768 3.632 4.32 5.84 14.544 6.288 10.192-0.432 11.68-2.624 14.464-6.288 2.592-3.84 4.144-11.568 4.048-19.168 0-2.32-0.128-4.48-0.304-6.544h-36.512c-0.16 2.096-0.304 4.288-0.304 6.544zM512 111.984c0 62.672-40.096 115.84-95.968 135.632v168.384h-32v32.016h32v31.984h-368c-1.344-0.064-11.328 0.128-23.136-5.664-11.968-5.312-25.44-20.656-24.88-42.336 0-0.096 0.016-0.192 0.016-0.288v-431.712c0-32 32-32 32-32l337.184 0.064c78.992 0.656 142.784 64.8 142.784 143.92zM45.648 416.304c-2.848 0.416-6.96 1.792-9.264 3.808-2.208 2.144-4.112 3.888-4.352 11.888 0.528 10.336 3.104 10.976 7.152 13.696 2.080 1.040 4.624 1.712 6.464 2 1.872 0.352 2.352 0.224 2.384 0.32h304v-32.016h-304c-0.032 0-0.512-0.032-2.384 0.304zM64 0v384h320v-128.96c-5.264 0.592-10.608 0.96-16.032 0.96-34.272 0-65.696-12.016-90.416-32h-181.552v-32h152.256c-6.608-9.856-11.888-20.624-15.92-32h-136.336v-32h128.912c-0.576-5.264-0.944-10.592-0.944-16.016 0-45.264 20.912-85.6 53.568-111.984h-213.536zM368 0c-61.84 0.128-111.904 50.16-112 111.984 0.096 61.84 50.16 111.92 112 112.016 61.84-0.096 111.872-50.176 112-112.016-0.128-61.824-50.16-111.856-112-111.984zM352 288h-256v-32h256v32z" />
<glyph unicode="&#xe664;" d="M448 96v32.016h-26.608c-1.008 3.392-2.32 6.608-3.92 9.696l18.992 18.992-22.656 22.64-18.64-18.656c-3.52 1.968-7.232 3.536-11.152 4.704v26.608h-32v-26.592c-3.664-1.088-7.136-2.528-10.432-4.32l-18.256 18.24-22.64-22.64 18.24-18.24c-1.792-3.312-3.232-6.784-4.336-10.448h-26.592v-32h26.592c1.168-3.936 2.752-7.664 4.72-11.168l-18.64-18.608 22.608-22.656 19.008 18.992c3.072-1.616 6.304-2.912 9.68-3.92v-26.64h32.032v26.64c3.664 1.088 7.12 2.528 10.416 4.32l19.392-19.392 22.624 22.656-19.392 19.36c1.776 3.296 3.216 6.768 4.32 10.416h26.64zM367.984 88.016c-13.264 0.032-23.968 10.736-24.016 24 0.048 13.264 10.752 23.968 24.016 24.016 13.264-0.048 23.968-10.752 24-24.016-0.032-13.264-10.736-23.968-24-24zM512 111.984c0 62.672-40.096 115.84-95.968 135.632v168.384h-32v32.016h32v31.984h-368c-1.344-0.064-11.328 0.128-23.136-5.664-11.968-5.312-25.44-20.656-24.88-42.336 0-0.096 0.016-0.192 0.016-0.288v-431.712c0-32 32-32 32-32l337.184 0.064c78.992 0.656 142.784 64.8 142.784 143.92zM45.648 416.304c-2.848 0.416-6.96 1.792-9.264 3.808-2.208 2.144-4.112 3.888-4.352 11.888 0.528 10.336 3.104 10.976 7.152 13.696 2.080 1.040 4.624 1.712 6.464 2 1.872 0.352 2.352 0.224 2.384 0.32h304v-32.016h-304c-0.032 0-0.512-0.032-2.384 0.304zM64 0v384h320v-128.96c-5.264 0.592-10.608 0.96-16.032 0.96-34.272 0-65.696-12.016-90.416-32h-181.552v-32h152.256c-6.608-9.856-11.888-20.624-15.92-32h-136.336v-32h128.912c-0.576-5.264-0.944-10.592-0.944-16.016 0-45.264 20.912-85.6 53.568-111.984h-213.536zM368 0c-61.84 0.128-111.904 50.16-112 111.984 0.096 61.84 50.16 111.92 112 112 61.84-0.096 111.872-50.16 112-112-0.128-61.824-50.16-111.856-112-111.984zM352 288h-256v-32h256v32z" />
<glyph unicode="&#xe665;" d="M320 160h96v-96h-96zM512 111.984c0 62.672-40.096 115.84-95.968 135.632v168.384h-32v32.016h32v31.984h-368c-1.344-0.064-11.328 0.128-23.136-5.664-11.968-5.312-25.44-20.656-24.88-42.336 0-0.096 0.016-0.192 0.016-0.288v-431.712c0-32 32-32 32-32l337.184 0.064c78.992 0.656 142.784 64.8 142.784 143.92zM45.648 416.304c-2.848 0.416-6.96 1.792-9.264 3.808-2.208 2.144-4.112 3.888-4.352 11.888 0.528 10.336 3.104 10.976 7.152 13.696 2.080 1.040 4.624 1.712 6.464 2 1.872 0.352 2.352 0.224 2.384 0.32h304v-32.016h-304c-0.032 0-0.512-0.032-2.384 0.304zM64 0v384h320v-128.96c-5.264 0.592-10.608 0.96-16.032 0.96-34.272 0-65.696-12.016-90.416-32h-181.552v-32h152.256c-6.608-9.856-11.888-20.624-15.92-32h-136.336v-32h128.912c-0.576-5.264-0.944-10.592-0.944-16.016 0-45.264 20.912-85.6 53.568-111.984h-213.536zM368 0c-61.84 0.128-111.904 50.16-112 111.984 0.096 61.84 50.16 111.92 112 112 61.84-0.096 111.872-50.16 112-112-0.128-61.824-50.16-111.856-112-111.984zM352 288h-256v-32h256v32z" />
<glyph unicode="&#xe666;" d="M368 160l-64-64h128zM512 111.984c0 62.672-40.096 115.84-95.968 135.632v168.384h-32v32.016h32v31.984h-368c-1.344-0.064-11.328 0.128-23.136-5.664-11.968-5.312-25.44-20.656-24.88-42.336 0-0.096 0.016-0.192 0.016-0.288v-431.712c0-32 32-32 32-32l337.184 0.064c78.992 0.656 142.784 64.8 142.784 143.92zM45.648 416.304c-2.848 0.416-6.96 1.792-9.264 3.808-2.208 2.144-4.112 3.888-4.352 11.888 0.528 10.336 3.104 10.976 7.152 13.696 2.080 1.040 4.624 1.712 6.464 2 1.872 0.352 2.352 0.224 2.384 0.32h304v-32.016h-304c-0.032 0-0.512-0.032-2.384 0.304zM64 0v384h320v-128.96c-5.264 0.592-10.608 0.96-16.032 0.96-34.272 0-65.696-12.016-90.416-32h-181.552v-32h152.256c-6.608-9.856-11.888-20.624-15.92-32h-136.336v-32h128.912c-0.576-5.264-0.944-10.592-0.944-16.016 0-45.264 20.912-85.6 53.568-111.984h-213.536zM368 0c-61.84 0.128-111.904 50.16-112 111.984 0.096 61.84 50.16 111.92 112 112.016 61.84-0.096 111.872-50.176 112-112.016-0.128-61.824-50.16-111.856-112-111.984zM352 288h-256v-32h256v32z" />
<glyph unicode="&#xe667;" d="M368 192h-256v32h256zM368 256h-256v32h256zM304 128h-192v32h192zM432.032 480v-31.984h-32v-32.016h32v-448h-384c0 0-32 0-32 32v431.712c0 0.096-0.016 0.192-0.016 0.288-0.56 21.68 12.912 37.024 24.88 42.336 11.808 5.792 21.792 5.6 23.136 5.664h368zM63.968 416c0.032 0 0.064 0 0.064 0h304v32.016h-304c-0.032-0.096-0.512 0.032-2.384-0.304-1.84-0.304-4.384-0.96-6.464-2-4.048-2.736-6.624-3.36-7.152-13.712 0.24-8 2.144-9.744 4.352-11.888 2.304-2.016 6.416-3.392 9.264-3.824 1.52-0.272 2.128-0.288 2.32-0.288zM80.032 0h320v384h-320v-384z" />
<glyph unicode="&#xe668;" d="M448 96v32.016h-26.608c-1.008 3.392-2.32 6.608-3.92 9.696l18.992 18.992-22.656 22.64-18.64-18.656c-3.52 1.968-7.232 3.536-11.152 4.704v26.608h-32v-26.592c-3.664-1.088-7.136-2.528-10.432-4.32l-18.256 18.24-22.64-22.64 18.24-18.24c-1.792-3.312-3.232-6.784-4.336-10.448h-26.592v-32h26.592c1.168-3.936 2.752-7.664 4.72-11.168l-18.64-18.608 22.608-22.656 19.008 18.992c3.072-1.616 6.304-2.912 9.68-3.92v-26.64h32.032v26.64c3.664 1.088 7.12 2.528 10.416 4.32l19.392-19.392 22.624 22.656-19.392 19.36c1.776 3.296 3.216 6.768 4.32 10.416h26.64zM367.984 88.016c-13.264 0.032-23.968 10.736-24.016 24 0.048 13.264 10.752 23.968 24.016 24.016 13.264-0.048 23.968-10.752 24-24.016-0.032-13.264-10.736-23.968-24-24zM368.016 256c-16.848 0-32.96-3.040-47.968-8.352v168.352h-32v32.016h32v31.984h-272c-1.36-0.096-11.328 0.096-23.168-5.68-11.952-5.28-25.408-20.672-24.848-42.32 0-0.048 0-0.096 0-0.144v-335.856c0-32 32-32 32-32h128v-96l48 32 48-32v53.552c26.4-32.624 66.72-53.536 111.984-53.536 79.536 0 143.984 64.448 143.984 143.984 0 79.552-64.448 144-143.984 144zM45.664 416.304c-2.864 0.384-6.976 1.776-9.28 3.808-2.192 2.144-4.112 3.888-4.368 11.888 0.56 10.336 3.12 10.96 7.168 13.68 2.064 1.056 4.608 1.744 6.48 2.032 1.84 0.336 2.368 0.16 2.368 0.304h208v-32.016h-208c0 0-0.512-0.032-2.368 0.304zM64.032 96v288h224v-152.24c-38.592-25.84-64.016-69.808-64.016-119.76 0-5.408 0.352-10.736 0.944-16h-160.928zM368.016 0.016c-61.84 0.128-111.904 50.16-112 111.984 0.096 61.84 50.16 111.904 112 112 61.824-0.096 111.856-50.16 111.984-112-0.128-61.824-50.16-111.856-111.984-111.984z" />
<glyph unicode="&#xe669;" d="M320.016 448.016v31.984h-272c-1.344-0.096-11.312 0.096-23.152-5.68-11.952-5.28-25.408-20.672-24.848-42.32 0-0.048 0-0.096 0-0.144v-335.856c0-32 32-32 32-32h128v-96l48 32 48-32v96h64v352h-32v32.016h32zM288.016 96h-224v288h224v-288zM256.016 416h-208c0 0-0.528-0.032-2.368 0.304-2.864 0.384-6.976 1.776-9.28 3.808-2.192 2.144-4.112 3.888-4.368 11.888 0.56 10.336 3.12 10.96 7.168 13.68 2.064 1.056 4.608 1.744 6.48 2.032 1.84 0.336 2.368 0.16 2.368 0.304h208v-32.016z" />
<glyph unicode="&#xe66a;" d="M288 256v64h-64v-64h-64v-64h64v-64h64v64h64v64h-64zM255.984 384c-88.384 0-159.984-71.632-159.984-159.984 0-88.368 71.584-160 159.984-160 88.368 0 160 71.632 160 160 0 88.352-71.632 159.984-160 159.984zM255.984 96.016c-70.704 0.144-127.872 57.296-128 128 0.128 70.672 57.296 127.872 128 128 70.704-0.128 127.856-57.328 128-128-0.144-70.704-57.296-127.856-128-128zM272 480h-32v-64h32v64zM240-32h32v64h-32v-64zM388.656 68.688l48-48 22.656 22.656-48 48-22.656-22.656zM123.296 379.328l-48 47.984-22.608-22.608 47.984-48 22.624 22.624zM459.312 404.672l-22.656 22.64-48-48 22.656-22.64 48 48zM52.688 43.344l22.64-22.656 48 48-22.64 22.656-48-48zM64 240h-64v-32h64v32zM448 240v-32h64v32h-64z" />
<glyph unicode="&#xe66b;" d="M255.984 384c-88.384 0-159.984-71.632-159.984-159.984 0-88.368 71.584-160 159.984-160 88.368 0 160 71.632 160 160 0 88.352-71.632 159.984-160 159.984zM255.984 96.016c-70.704 0.144-127.872 57.296-128 128 0.128 70.672 57.296 127.872 128 128 70.704-0.128 127.856-57.328 128-128-0.144-70.704-57.296-127.856-128-128zM160 256v-64h192v64h-192zM272 480h-32v-64h32v64zM240-32h32v64h-32v-64zM388.656 68.688l48-48 22.656 22.656-48 48-22.656-22.656zM123.296 379.328l-48 47.984-22.608-22.608 47.984-48 22.624 22.624zM459.312 404.672l-22.656 22.64-48-48 22.656-22.64 48 48zM52.688 43.344l22.64-22.656 48 48-22.64 22.656-48-48zM64 240h-64v-32h64v32zM448 240v-32h64v32h-64z" />
<glyph unicode="&#xe66c;" d="M352 128h-64v-32h64v-64h32.032v64h63.968v32h-63.968v64h-32.032zM448 320h-160v-32h160v32zM224 320h-160v-160h160v160zM512 480h-512v-448h248.288c25.824-38.576 69.776-63.984 119.712-64 79.536 0.032 143.968 64.464 144 144 0 5.792-0.432 11.488-1.104 17.104l1.104-1.104v352zM160 448h192v-32h-192v32zM96 448h32v-32h-32v32zM32 448h32v-32h-32v32zM368 1.872c-60.816 0.144-110.016 49.344-110.16 110.128 0.144 60.816 49.344 110.016 110.16 110.16 60.784-0.144 109.984-49.344 110.128-110.16-0.144-60.784-49.344-109.984-110.128-110.128zM479.984 202.432c-9.12 11.28-19.888 21.184-31.984 29.28v24.288h-79.84c-0.048 0-0.112 0-0.16 0s-0.112 0-0.16 0h-79.84v-24.256c-38.592-25.824-64-69.776-64-119.728 0-16.864 3.040-32.976 8.368-48h-200.368v319.984h447.984v-181.568zM480 416h-64v32h64v-32z" />
<glyph unicode="&#xe66d;" d="M368 80l32-32 32 32-32 32 32 32-32 32-32-32-32 32-32-32 32-32-32-32 32-32zM448 320h-160v-32h160v32zM224 320h-160v-160h160v160zM512 480h-512v-448h248.288c25.824-38.576 69.776-63.984 119.712-64 79.536 0.032 143.968 64.464 144 144 0 5.792-0.432 11.488-1.104 17.104l1.104-1.104v352zM160 448h192v-32h-192v32zM96 448h32v-32h-32v32zM32 448h32v-32h-32v32zM368 1.872c-60.816 0.144-110.016 49.344-110.16 110.128 0.144 60.816 49.344 110.016 110.16 110.16 60.784-0.144 109.984-49.344 110.128-110.16-0.144-60.784-49.344-109.984-110.128-110.128zM479.984 202.432c-9.12 11.296-19.888 21.184-31.984 29.28v24.288h-79.84c-0.048 0-0.112 0-0.16 0s-0.112 0-0.16 0h-79.84v-24.256c-38.592-25.824-64-69.776-64-119.728 0-16.864 3.040-32.976 8.368-48h-200.368v319.984h447.984v-181.568zM480 416h-64v32h64v-32z" />
<glyph unicode="&#xe66e;" d="M288 128h160v-32h-160zM448 320h-160v-32h160v32zM224 320h-160v-160h160v160zM512 480h-512v-448h248.288c25.824-38.576 69.776-63.984 119.712-64 79.536 0.032 143.968 64.464 144 144 0 5.792-0.432 11.488-1.104 17.104l1.104-1.104v352zM160 448h192v-32h-192v32zM96 448h32v-32h-32v32zM32 448h32v-32h-32v32zM368 1.872c-60.816 0.144-110.016 49.344-110.16 110.128 0.144 60.816 49.344 110.016 110.16 110.16 60.784-0.144 109.984-49.344 110.128-110.16-0.144-60.784-49.344-109.984-110.128-110.128zM479.984 202.432c-9.12 11.28-19.888 21.184-31.984 29.28v24.288h-79.84c-0.048 0-0.112 0-0.16 0s-0.112 0-0.16 0h-79.84v-24.256c-38.592-25.824-64-69.776-64-119.728 0-16.864 3.040-32.976 8.368-48h-200.368v319.984h447.984v-181.568zM480 416h-64v32h64v-32z" />
<glyph unicode="&#xe66f;" d="M418.304 128c0.128 2.096 0.224 4.272 0.224 6.544-0.096 10.848-1.408 23.872-8.896 36.144-7.312 12.464-23.008 21.76-41.632 21.328-18.64 0.432-34.368-8.864-41.68-21.328-7.52-12.272-8.832-25.296-8.896-36.144 0-2.288 0.096-4.448 0.224-6.544h-13.648v-80h128v80h-13.696zM349.392 134.544c-0.064 7.648 1.488 15.328 4.064 19.168 2.768 3.632 4.32 5.856 14.544 6.304 10.192-0.432 11.68-2.64 14.464-6.304 2.592-3.84 4.144-11.568 4.048-19.168 0-2.32-0.128-4.48-0.304-6.544h-36.512c-0.16 2.096-0.304 4.288-0.304 6.544zM448 320h-160v-32h160v32zM224 320h-160v-160h160v160zM512 480h-512v-448h248.288c25.824-38.576 69.776-63.984 119.712-64 79.536 0.032 143.968 64.464 144 144 0 5.792-0.432 11.488-1.104 17.104l1.104-1.104v352zM160 448h192v-32h-192v32zM96 448h32v-32h-32v32zM32 448h32v-32h-32v32zM368 1.872c-60.816 0.144-110.016 49.344-110.16 110.128 0.144 60.816 49.344 110.016 110.16 110.16 60.784-0.144 109.984-49.344 110.128-110.16-0.144-60.784-49.344-109.984-110.128-110.128zM479.984 202.432c-9.12 11.28-19.888 21.184-31.984 29.28v24.288h-79.84c-0.048 0-0.112 0-0.16 0s-0.112 0-0.16 0h-79.84v-24.256c-38.592-25.824-64-69.776-64-119.728 0-16.864 3.040-32.976 8.368-48h-200.368v319.984h447.984v-181.568zM480 416h-64v32h64v-32z" />
<glyph unicode="&#xe670;" d="M448 96v32.016h-26.608c-1.008 3.392-2.32 6.608-3.92 9.696l18.992 18.992-22.656 22.64-18.64-18.656c-3.52 1.968-7.232 3.536-11.152 4.704v26.608h-32v-26.592c-3.664-1.088-7.136-2.528-10.432-4.32l-18.256 18.24-22.64-22.64 18.24-18.24c-1.792-3.312-3.232-6.784-4.336-10.448h-26.592v-32h26.592c1.168-3.936 2.752-7.664 4.72-11.168l-18.64-18.608 22.608-22.656 19.008 18.992c3.072-1.616 6.304-2.912 9.68-3.92v-26.64h32.032v26.64c3.664 1.088 7.12 2.528 10.416 4.32l19.392-19.392 22.624 22.656-19.392 19.36c1.776 3.296 3.216 6.768 4.32 10.416h26.64zM367.984 88.016c-13.264 0.032-23.968 10.736-24.016 24 0.048 13.264 10.752 23.968 24.016 24.016 13.264-0.048 23.968-10.752 24-24.016-0.032-13.264-10.736-23.968-24-24zM448 320h-160v-32h160v32zM224 320h-160v-160h160v160zM512 480h-512v-448h248.288c25.824-38.576 69.776-63.984 119.712-64 79.536 0.032 143.968 64.464 144 144 0 5.792-0.432 11.488-1.104 17.104l1.104-1.104v352zM160 448h192v-32h-192v32zM96 448h32v-32h-32v32zM32 448h32v-32h-32v32zM368 1.872c-60.816 0.144-110.016 49.344-110.16 110.128 0.144 60.816 49.344 110.016 110.16 110.16 60.784-0.144 109.984-49.344 110.128-110.16-0.144-60.784-49.344-109.984-110.128-110.128zM479.984 202.432c-9.12 11.296-19.888 21.184-31.984 29.28v24.288h-79.84c-0.048 0-0.112 0-0.16 0s-0.112 0-0.16 0h-79.84v-24.256c-38.592-25.824-64-69.776-64-119.728 0-16.864 3.040-32.976 8.368-48h-200.368v319.984h447.984v-181.568zM480 416h-64v32h64v-32z" />
<glyph unicode="&#xe671;" d="M384 64c0-26.51-21.49-48-48-48s-48 21.49-48 48c0 26.51 21.49 48 48 48s48-21.49 48-48zM256 480c0 0-11.184 0.408-23-5.5s-25-21.166-25-42.5h-128c0 0-11.184 0.408-23-5.5s-25-21.166-25-42.5c0-7.31 3.013-12.777 5.5-18.5-4.397-0.61-6.077 0.212-12.5-3-11.816-5.908-25-21.166-25-42.5 0-14.113 6.22-24.209 13.5-32-7.28-7.792-13.5-17.887-13.5-32 0-21.334 13.184-36.592 25-42.5 6.423-3.212 8.103-2.39 12.5-3-2.487-5.723-5.5-11.19-5.5-18.5 0-21.334 13.184-36.592 25-42.5s23-5.5 23-5.5h112c0-26.51 21.49-48 48-48s48 21.49 48 48h96c27.555 0 45.928 10.404 55 22.5 3.396 4.528 2.148 5.36 3.5 9.5h69.5v32h-96v-16c0 0-0.072-2.596-3-6.5s-8.555-9.5-29-9.5h-108.5c-8.785 9.743-21.349 16-35.5 16s-26.715-6.257-35.5-16h-124.5c0 0-4.816 0.408-9 2.5s-7 2.834-7 13.5c0 10.666 2.816 11.408 7 13.5s9 2.5 9 2.5h144v32h-176c0 0-4.816 0.408-9 2.5s-7 2.833-7 13.5c0 10.666 2.816 11.408 7 13.5s9 2.5 9 2.5h160v32h-160c0 0-4.816 0.408-9 2.5s-7 2.833-7 13.5c0 10.666 2.816 11.408 7 13.5s9 2.5 9 2.5h192v32h-160c0 0-4.816 0.408-9 2.5s-7 2.834-7 13.5c0 10.666 2.816 11.408 7 13.5s9 2.5 9 2.5h141.5c3.725-3.986 7.501-8.5 11.5-10.5 11.816-5.908 23-5.5 23-5.5h83c2.397-8.608 5.76-16.606 11-22.5 8.346-9.389 18.858-14.885 28.5-18.5 19.284-7.231 37.5-7 37.5-7v32c0 0-13.784 0.231-26.5 5-6.358 2.385-11.846 5.889-15.5 10s-6 8.555-6 17v16h-112c0 0-4.816 0.408-9 2.5s-7 2.834-7 13.5c0 10.666 2.816 11.408 7 13.5s9 2.5 9 2.5h128c26.666 0 35.408-10.816 41.5-23s6.5-25 6.5-25v-16h80v32h-52c-0.923 7.486 0.337 11.325-5.5 23-9.908 19.816-33.166 41-70.5 41h-128zM304 288c-26.51 0-48-21.49-48-48s21.49-48 48-48c26.51 0 48 21.49 48 48s-21.49 48-48 48z" />
<glyph unicode="&#xe672;" d="M96 480v-512h320v512h-320zM191.984 0h-63.984v32.016h63.984v-32.016zM191.984 64h-63.984v32h63.984v-32zM192 128h-64.016v32h64.016v-32zM192 192h-64v32h64v-32zM192 256h-64.016v32h64.016v-32zM287.984 0h-63.984v32.016h63.984v-32.016zM288 64h-64v32h64v-32zM224 128v32h63.984v-32h-63.984zM288 192h-64v32h64v-32zM288 256h-64v32h64v-32zM384 0h-64.016v96h64.016v-96zM384 128h-64v32h64v-32zM384 192h-64v32h64v-32zM384 256h-64v32h64v-32zM384 352h-256v64h256v-64z" />
<glyph unicode="&#xe673;" d="M449.184 449.184v30.816h-32v-30.816h-320v30.816h-32v-30.816h-65.184v-482.352h514.352v482.352h-65.168zM479.984 1.2h-445.616v382.8h30.816v-32h32v32h320v-32h32v32h30.8v-382.8zM289.184 96h96v-32h-96zM289.216 288h64v-32h-64zM321.216 288h32v-224h-32zM161.216 192h64v-32h-64zM129.184 96h96v-32h-96zM129.216 288h96v-32h-96zM225.216 256h32v-64h-32zM225.216 160h32v-64h-32z" />
<glyph unicode="&#xe674;" d="M256 160l160-160 64 64-160 160 160 160-64 64-160-160-160 160-64-64 160-160-160-160 64-64z" />
<glyph unicode="&#xe675;" d="M368 256c-16.864 0-32.976-3.040-48-8.352v40.352h-128v-32h-64v64h32v128h-128v-128h64v-255.984h96v-64.016h85.584c24.72-19.968 56.16-31.984 90.416-32 79.536 0.032 143.968 64.464 144 144-0.032 79.568-64.464 144-144 144zM224.944 128h-32.944v-32h-63.984l-0.016 128.032h64v-64.032h40.352c-3.6-10.208-6.192-20.896-7.408-32zM368 1.872c-60.816 0.144-110.016 49.344-110.16 110.128 0.144 60.816 49.344 110.016 110.16 110.16 60.784-0.144 109.984-49.344 110.128-110.16-0.144-60.784-49.344-109.984-110.128-110.128zM352 32h32.032v64h63.968v32h-63.968v64h-32.032v-64h-64v-32h64z" />
<glyph unicode="&#xe676;" d="M304 48h48l-48 48v-48zM400 192l-80-80 48-48 80 80-48 48zM368 256c-16.864 0-32.976-3.040-48-8.352v40.352h-128v-32h-64v64h32v128h-128v-128h64v-255.984h96v-64.016h85.584c24.72-19.968 56.16-31.984 90.416-32 79.536 0.032 143.968 64.464 144 144-0.032 79.568-64.464 144-144 144zM224.944 128h-32.944v-32h-63.984l-0.016 128.032h64v-64.032h40.352c-3.6-10.208-6.192-20.896-7.408-32zM368 1.872c-60.816 0.144-110.016 49.344-110.16 110.128 0.144 60.816 49.344 110.016 110.16 110.16 60.784-0.144 109.984-49.344 110.128-110.16-0.144-60.784-49.344-109.984-110.128-110.128z" />
<glyph unicode="&#xe677;" d="M288 128h160v-32h-160zM368 256c-16.864 0-32.976-3.040-48-8.352v40.352h-128v-32h-64v64h32v128h-128v-128h64v-255.984h96v-64.016h85.584c24.72-19.968 56.16-31.984 90.416-32 79.536 0.032 143.968 64.464 144 144-0.032 79.568-64.464 144-144 144zM192 96h-63.984l-0.016 128.032h64v-64.032h40.352c-3.616-10.208-6.192-20.896-7.424-32h-32.928v-32zM368 1.872c-60.816 0.144-110.016 49.344-110.16 110.128 0.144 60.816 49.344 110.016 110.16 110.16 60.784-0.144 109.984-49.344 110.128-110.16-0.144-60.784-49.344-109.984-110.128-110.128z" />
<glyph unicode="&#xe678;" d="M448 96v32.016h-26.608c-1.008 3.392-2.32 6.608-3.92 9.696l18.992 18.992-22.656 22.64-18.64-18.656c-3.52 1.968-7.232 3.536-11.152 4.704v26.608h-32v-26.592c-3.664-1.088-7.136-2.528-10.432-4.32l-18.256 18.24-22.64-22.64 18.24-18.24c-1.792-3.312-3.232-6.784-4.336-10.448h-26.592v-32h26.592c1.168-3.936 2.752-7.664 4.72-11.168l-18.64-18.608 22.608-22.656 19.008 18.992c3.072-1.616 6.304-2.912 9.68-3.92v-26.64h32.032v26.64c3.664 1.088 7.12 2.528 10.416 4.32l19.392-19.392 22.624 22.656-19.392 19.36c1.776 3.296 3.216 6.768 4.32 10.416h26.64zM367.984 88.016c-13.264 0.032-23.968 10.736-24.016 24 0.048 13.264 10.752 23.968 24.016 24.016 13.264-0.048 23.968-10.752 24-24.016-0.032-13.264-10.736-23.968-24-24zM368 256c-16.864 0-32.976-3.040-48-8.352v40.352h-128v-32h-64v64h32v128h-128v-128h64v-255.984h96v-64.016h85.584c24.72-19.968 56.16-31.984 90.416-32 79.536 0.032 143.968 64.464 144 144-0.032 79.568-64.464 144-144 144zM224.944 128h-32.944v-32h-63.984l-0.016 128.032h64v-64.032h40.352c-3.6-10.208-6.192-20.896-7.408-32zM368 1.872c-60.816 0.144-110.016 49.344-110.16 110.128 0.144 60.816 49.344 110.016 110.16 110.16 60.784-0.144 109.984-49.344 110.128-110.16-0.144-60.784-49.344-109.984-110.128-110.128z" />
<glyph unicode="&#xe679;" d="M192 288v-32h-64v64h32v128h-128v-128h64v-256h96v-64h128v128h-128v-32.016l-64 0.016v128h64v-64h128v128z" />
<glyph unicode="&#xe67a;" d="M304 96h128v-32h-128zM368 192l-64-64h128zM512 224.016c-0.032 141.36-114.592 255.952-256 255.984-141.376-0.032-255.968-114.624-256-255.984 0.032-141.424 114.624-255.984 256-256.016 22.080 0 43.392 3.12 63.792 8.432 15.104-5.344 31.264-8.432 48.208-8.432 79.536 0 143.968 64.464 143.968 144 0 16.912-3.040 33.088-8.4 48.16 5.328 20.432 8.432 41.744 8.432 63.856zM256 0.032c-123.712 0.192-223.76 100.256-224 223.984 0.24 123.712 100.288 223.744 224 223.984 123.728-0.24 223.776-100.272 223.984-223.984-0.016-6.832-0.416-13.568-1.040-20.24-26.416 31.888-66.304 52.224-110.944 52.224-7.184 0-14.192-0.704-21.088-1.712-12.688 38.144-48.512 65.712-90.912 65.712-53.024 0-95.984-42.96-95.984-95.984 0-42.416 27.552-78.224 65.696-90.912-1.008-6.912-1.712-13.92-1.712-21.104 0-44.656 20.32-84.528 52.192-110.944-6.656-0.624-13.376-1.024-20.192-1.024zM287.136 231.152c-3.264 14.208-15.936 24.848-31.12 24.848-17.664 0-32-14.336-32-32 0-15.184 10.624-27.872 24.832-31.12-5.984-8.816-10.896-18.336-14.832-28.368-24.416 8.96-41.952 31.952-42 59.488 0.064 35.36 28.64 63.936 63.984 64 27.552-0.048 50.544-17.584 59.52-42-10.048-3.952-19.584-8.864-28.384-14.848zM368 0c-61.84 0.128-111.904 50.16-112 112 0.096 61.84 50.16 111.904 112 112 61.824-0.096 111.856-50.144 111.984-112-0.128-61.84-50.16-111.872-111.984-112z" />
<glyph unicode="&#xe67b;" d="M320.016 160h32v-96h-32zM384.016 160h32v-96h-32zM512.016 224.016c-0.032 141.36-114.608 255.952-256.016 255.984-141.376-0.032-255.968-114.624-256-255.984 0.032-141.424 114.624-256 256-256.032 22.080 0 43.392 3.12 63.792 8.448 15.104-5.36 31.264-8.432 48.208-8.432 79.536 0 143.984 64.448 143.984 143.984 0 16.928-3.056 33.088-8.416 48.176 5.328 20.416 8.448 41.728 8.448 63.856zM256 0.016c-123.712 0.208-223.76 100.256-224 224 0.24 123.696 100.288 223.744 224 223.984 123.728-0.24 223.776-100.288 223.984-223.984-0.016-6.848-0.416-13.568-1.040-20.24-26.4 31.888-66.304 52.208-110.944 52.208-7.184 0-14.192-0.704-21.088-1.712-12.688 38.16-48.496 65.712-90.912 65.712-53.024 0-95.984-42.96-95.984-95.984 0-42.4 27.552-78.224 65.696-90.912-1.008-6.896-1.712-13.92-1.712-21.104 0-44.64 20.32-84.512 52.192-110.928-6.656-0.624-13.376-1.024-20.192-1.040zM287.136 231.136c-3.264 14.224-15.936 24.848-31.12 24.848-17.664 0-32-14.336-32-32 0-15.184 10.624-27.856 24.832-31.12-5.984-8.8-10.896-18.336-14.832-28.368-24.416 8.992-41.952 31.984-42 59.52 0.064 35.344 28.64 63.92 63.984 63.984 27.552-0.048 50.544-17.584 59.52-42-10.048-3.952-19.584-8.88-28.384-14.864zM368 0c-61.84 0.128-111.904 50.16-112 111.984 0.096 61.84 50.16 111.904 112 112 61.824-0.096 111.856-50.16 111.984-112-0.128-61.824-50.16-111.856-111.984-111.984z" />
<glyph unicode="&#xe67c;" d="M416.016 112l-64 64v-128zM512.016 224c-0.032 141.376-114.608 255.968-256.016 256-141.376-0.032-255.968-114.624-256-256 0.032-141.408 114.624-256 256-256.016 22.080 0 43.392 3.12 63.792 8.448 15.104-5.36 31.264-8.432 48.208-8.432 79.536 0 143.984 64.448 143.984 143.984 0 16.928-3.056 33.088-8.416 48.176 5.328 20.416 8.448 41.728 8.448 63.84zM256 0.016c-123.712 0.208-223.76 100.256-224 223.984 0.24 123.712 100.288 223.76 224 224 123.728-0.24 223.776-100.288 223.984-224-0.016-6.832-0.416-13.568-1.040-20.224-26.4 31.888-66.304 52.208-110.944 52.208-7.184 0-14.192-0.704-21.088-1.712-12.688 38.16-48.496 65.712-90.912 65.712-53.024 0-95.984-42.96-95.984-95.984 0-42.4 27.552-78.224 65.696-90.912-1.008-6.896-1.712-13.92-1.712-21.104 0-44.64 20.32-84.512 52.192-110.928-6.656-0.624-13.376-1.024-20.192-1.040zM287.136 231.136c-3.264 14.224-15.936 24.848-31.12 24.848-17.664 0-32-14.336-32-32 0-15.184 10.624-27.856 24.832-31.12-5.984-8.8-10.896-18.336-14.832-28.368-24.416 8.992-41.952 31.984-42 59.52 0.064 35.344 28.64 63.92 63.984 63.984 27.552-0.048 50.544-17.584 59.52-42-10.048-3.952-19.584-8.88-28.384-14.864zM368 0c-61.84 0.128-111.904 50.16-112 111.984 0.096 61.84 50.16 111.904 112 112 61.824-0.096 111.856-50.16 111.984-112-0.128-61.824-50.16-111.856-111.984-111.984z" />
<glyph unicode="&#xe67d;" d="M418.304 127.952c0.128 2.096 0.224 4.272 0.224 6.544-0.096 10.848-1.408 23.872-8.896 36.144-7.312 12.464-23.008 21.76-41.632 21.328-18.64 0.432-34.368-8.864-41.68-21.328-7.52-12.272-8.832-25.296-8.896-36.144 0-2.288 0.096-4.448 0.224-6.544h-13.648v-80h128v80h-13.696zM349.392 134.496c-0.064 7.648 1.488 15.328 4.064 19.168 2.768 3.632 4.32 5.856 14.544 6.304 10.192-0.432 11.68-2.64 14.464-6.304 2.592-3.84 4.144-11.568 4.048-19.168 0-2.32-0.128-4.48-0.304-6.544h-36.512c-0.16 2.096-0.304 4.288-0.304 6.544zM512.016 224c-0.032 141.376-114.608 255.968-256.016 256-141.376-0.032-255.968-114.624-256-256 0.032-141.408 114.624-256 256-256.016 22.080 0 43.392 3.12 63.792 8.448 15.104-5.36 31.264-8.432 48.208-8.432 79.536 0 143.984 64.448 143.984 143.984 0 16.928-3.056 33.088-8.416 48.176 5.328 20.416 8.448 41.728 8.448 63.84zM256 0.016c-123.712 0.208-223.76 100.256-224 223.984 0.24 123.712 100.288 223.76 224 224 123.728-0.24 223.776-100.288 223.984-224-0.016-6.832-0.416-13.568-1.040-20.224-26.4 31.888-66.304 52.208-110.944 52.208-7.184 0-14.192-0.704-21.088-1.712-12.688 38.16-48.496 65.712-90.912 65.712-53.024 0-95.984-42.96-95.984-95.984 0-42.4 27.552-78.224 65.696-90.912-1.008-6.896-1.712-13.92-1.712-21.104 0-44.64 20.32-84.512 52.192-110.928-6.656-0.624-13.376-1.024-20.192-1.040zM287.136 231.136c-3.264 14.224-15.936 24.848-31.12 24.848-17.664 0-32-14.336-32-32 0-15.184 10.624-27.856 24.832-31.12-5.984-8.8-10.896-18.336-14.832-28.368-24.416 8.992-41.952 31.984-42 59.52 0.064 35.344 28.64 63.92 63.984 63.984 27.552-0.048 50.544-17.584 59.52-42-10.048-3.952-19.584-8.88-28.384-14.864zM368 0c-61.84 0.128-111.904 50.16-112 111.984 0.096 61.84 50.16 111.904 112 112 61.824-0.096 111.856-50.16 111.984-112-0.128-61.824-50.16-111.856-111.984-111.984z" />
<glyph unicode="&#xe67e;" d="M320 160h96v-96h-96zM512.016 224c-0.032 141.376-114.608 255.968-256.016 256-141.376-0.032-255.968-114.624-256-256 0.032-141.408 114.624-256 256-256.016 22.080 0 43.392 3.12 63.792 8.448 15.104-5.36 31.264-8.432 48.208-8.432 79.536 0 143.984 64.448 143.984 143.984 0 16.928-3.056 33.088-8.416 48.176 5.328 20.416 8.448 41.728 8.448 63.84zM256 0.016c-123.712 0.208-223.76 100.256-224 223.984 0.24 123.712 100.288 223.76 224 224 123.728-0.24 223.776-100.288 223.984-224-0.016-6.832-0.416-13.568-1.040-20.224-26.4 31.888-66.304 52.208-110.944 52.208-7.184 0-14.192-0.704-21.088-1.712-12.688 38.16-48.496 65.712-90.912 65.712-53.024 0-95.984-42.96-95.984-95.984 0-42.4 27.552-78.224 65.696-90.912-1.008-6.896-1.712-13.92-1.712-21.104 0-44.64 20.32-84.512 52.192-110.928-6.656-0.624-13.376-1.024-20.192-1.040zM287.136 231.136c-3.264 14.224-15.936 24.848-31.12 24.848-17.664 0-32-14.336-32-32 0-15.184 10.624-27.856 24.848-31.12-5.984-8.8-10.912-18.336-14.848-28.368-24.416 8.992-41.952 31.984-42 59.52 0.064 35.344 28.64 63.92 63.984 63.984 27.552-0.048 50.544-17.584 59.52-42-10.048-3.952-19.584-8.88-28.384-14.864zM368 0c-61.84 0.128-111.904 50.16-112 111.984 0.096 61.84 50.16 111.904 112 112 61.824-0.096 111.856-50.16 111.984-112-0.128-61.824-50.16-111.856-111.984-111.984z" />
<glyph unicode="&#xe67f;" d="M447.998 144.001l-79.998-79.999-48.004 48.004 79.999 79.999zM303.992 95.992l48-48h-48zM512.008 224.008c-0.032 141.376-114.608 255.968-256.016 256-141.376-0.032-255.968-114.624-256-256 0.032-141.408 114.624-256 256-256.016 22.080 0 43.392 3.12 63.792 8.448 15.104-5.36 31.264-8.432 48.208-8.432 79.536 0 143.984 64.448 143.984 143.984 0 16.928-3.056 33.088-8.416 48.176 5.328 20.416 8.448 41.728 8.448 63.84zM255.992 0.024c-123.712 0.208-223.76 100.256-224 223.984 0.24 123.712 100.288 223.76 224 224 123.728-0.24 223.776-100.288 223.984-224-0.016-6.832-0.416-13.568-1.040-20.224-26.4 31.888-66.304 52.208-110.944 52.208-7.184 0-14.192-0.704-21.088-1.712-12.688 38.16-48.496 65.712-90.912 65.712-53.024 0-95.984-42.96-95.984-95.984 0-42.4 27.552-78.224 65.696-90.912-1.008-6.896-1.712-13.92-1.712-21.104 0-44.64 20.32-84.512 52.192-110.928-6.656-0.624-13.376-1.024-20.192-1.040zM287.128 231.144c-3.264 14.224-15.936 24.848-31.12 24.848-17.664 0-32-14.336-32-32 0-15.184 10.624-27.856 24.832-31.12-5.984-8.8-10.896-18.336-14.832-28.368-24.416 8.992-41.952 31.984-42 59.52 0.064 35.344 28.64 63.92 63.984 63.984 27.552-0.048 50.544-17.584 59.52-42-10.048-3.952-19.584-8.88-28.384-14.864zM367.992 0.008c-61.84 0.128-111.904 50.16-112 111.984 0.096 61.84 50.16 111.904 112 112 61.824-0.096 111.856-50.16 111.984-112-0.128-61.824-50.16-111.856-111.984-111.984z" />
<glyph unicode="&#xe680;" d="M256 480c-141.376-0.032-255.968-114.624-256-256 0.032-141.408 114.624-256 256-256.016 141.408 0.032 256 114.608 256.016 256.016-0.032 141.376-114.608 255.968-256.016 256zM256 0.016c-123.712 0.208-223.76 100.256-224 223.984 0.24 123.712 100.288 223.76 224 224 123.744-0.24 223.792-100.288 224-224-0.224-123.728-100.272-223.776-224-223.984zM256 319.984c-53.024 0-95.984-42.96-95.984-95.984 0-53.008 42.96-96 95.984-96 53.008 0 96 42.992 96 96 0 53.024-42.992 95.984-96 95.984zM256 159.984c-35.344 0.096-63.92 28.672-63.984 64.016 0.064 35.344 28.64 63.92 63.984 63.984 35.344-0.064 63.92-28.64 64.016-63.984-0.096-35.344-28.672-63.92-64.016-64.016zM256.016 255.984c-17.664 0-32-14.336-32-32s14.336-32 32-32c17.664 0 32 14.336 32 32 0 17.68-14.352 32-32 32z" />
<glyph unicode="&#xe681;" d="M320 160h32v-96h-32zM384 160h32v-96h-32zM192 416v-64h-192v-320h38.608l64.032 64h122.304c7.968-71.984 68.928-127.968 143.056-128 79.536 0.032 143.968 64.464 144 144v304h-320zM89.328 128l-57.328-57.328v249.328h256v-88.272c-34.4-23.008-58.272-60.48-63.056-103.728h-135.616zM368 1.872c-60.816 0.144-110 49.344-110.144 110.128 0.128 60.816 49.328 110.016 110.144 110.16 60.784-0.144 110-49.344 110.128-110.16-0.128-60.784-49.344-109.984-110.128-110.128zM368 256c-16.88 0-32.976-3.040-48.032-8.368v104.368h-95.968c0 0 0 32 0 32h256v-181.584c-26.368 32.656-66.72 53.584-112 53.584z" />
</font>
</defs>
</svg>
